<?xml version="1.0" encoding="utf-8"?>
<!-- Generator: Adobe Illustrator 24.1.0, SVG Export Plug-In . SVG Version: 6.00 Build 0)  -->
<svg version="1.1" id="Layer_1" xmlns="http://www.w3.org/2000/svg" xmlns:xlink="http://www.w3.org/1999/xlink" x="0px" y="0px"
	 viewBox="0 0 500 500" style="enable-background:new 0 0 500 500;" xml:space="preserve">
<style type="text/css">
	.st0{fill:#9DC2B5;}
	.st1{fill:#479D86;}
	.st2{fill:#F0C47C;}
	.st3{fill:#F49C00;}
	.st4{fill:#2B2F36;}
	.st5{fill:#F66F52;}
	.st6{fill:#FF2E00;}
	.st7{fill:#F4D7A6;}
	.st8{fill:#A3C3E0;}
	.st9{opacity:0.57;}
	.st10{fill:#4B8AC3;}
	.st11{fill:#E19FB3;}
	.st12{fill:#EFCED8;}
	.st13{fill:#F8E9D1;}
	.st14{fill:#D0E0ED;}
	.st15{fill:#D5EFEE;}
	.st16{fill:#FA907D;}
	.st17{fill:#57595D;}
	.st18{fill:#77A7D1;}
	.st19{fill:#F2F8F9;}
	.st20{fill:#DDDE83;}
	.st21{fill:#EAE9BA;}
	.st22{fill:#7EAF9E;}
	.st23{fill:#F9BEC0;}
	.st24{fill:#808083;}
	.st25{fill:#ECB14E;}
	.st26{fill:#FCECE4;}
	.st27{fill:#FBCDB6;}
	.st28{fill:#C3EBEC;}
	.st29{fill:#E681A3;}
	.st30{fill:#BED5CE;}
	.st31{fill:#E8B6C5;}
	.st32{fill:#0071B9;}
	.st33{fill:#FFAA7F;}
	.st34{fill:#DFF2F1;}
	.st35{fill:#F7E4E4;}
	.st36{fill:#F3CDCD;}
	.st37{fill:#FFF5EF;}
	.st38{fill:#DDE9E5;}
	.st39{fill:#F6F6E7;}
	.st40{fill:#F0F1D1;}
	.st41{fill:#F6E5EA;}
</style>
<g>
	<path class="st22" d="M229.3,240.2c10.8-10.1,25.1-16.4,39.9-17.6c2.4-0.2,5.1-0.2,7,1.3c2,1.6,2.6,4.3,3,6.8
		c1.1,7.5,1.2,15.1,0.5,22.7c-0.2,1.9-0.7,4-2.4,4.7c-1.2,0.5-2.6,0-3.8-0.5c-14.4-5.9-28.8-11.8-43.2-17.6"/>
	<path class="st22" d="M291.4,273.3c7.6-12.5,16.4-24.3,26.3-35c2.3-2.5,5-5.1,8.4-4.9c2.2,0.1,4.2,1.4,5.7,2.9
		c6.8,6.7,7,17.3,6.8,26.8c-0.2,8-0.4,16-0.5,24c-0.1,2.7-0.4,6-2.9,7.2c-2,1-4.4,0-6.4-1c-12.6-6-25.3-12-37.9-18.1"/>
	<path class="st22" d="M345.1,306.1c8.3-5.7,17.4-10.3,26.9-13.4c4.8-1.6,10.2-2.8,14.9-1c8,3,11.1,13.4,8.7,21.6
		c-2.3,8.2-8.5,14.7-14.5,20.8c-1.9,1.9-4,3.9-6.6,4.3c-2.7,0.4-5.3-1-7.7-2.4c-9.6-5.6-18.7-11.9-27.5-18.7c-2.6-2-5.3-4.8-4.6-7.9
		c0.5-2.3,2.8-3.8,4.9-4.9c5.4-2.9,11.2-5,17.1-6.3"/>
	<path class="st30" d="M189.7,51c-16.4-13-28.9-15.7-48.5-23c-21-7.8-72.8-22.9-88-6.4C43,32.7,41.6,49,41.1,64.1
		c-0.6,17.7,24.5,48.9,34.4,63.7c6.9,10.3,17.8,17.3,25.6,27c14.8,18.3,16.7,43.6,17.9,67.2c1.5,28,2.9,56,4.4,83.9
		c1.1,21.8,2.4,44,10.1,64.4c2,5.2,4.4,10.5,4.3,16c-0.1,3.5-1.1,6.9-1.3,10.3c-0.5,9.3,5.8,18.5,14.7,21.4
		c8.8,2.9,19.4-0.9,24.4-8.7c-6.9,23.2,17.2,46.1,41.3,47.7c4.9,0.3,10.1,0,14.2-2.8c5.7-3.8,7.8-11.1,12.2-16.3
		c5.9-6.8,16.3-9.4,24.7-6c8.4,3.4,14.1,12.4,13.6,21.4c-0.3,5.3-2.5,10.6-1.4,15.8c1,4.7,4.7,8.4,8.7,11
		c18.6,12.4,47.4,4.2,56.8-16c2.3-4.9,3.7-10.7,8-14.1c4-3.2,9.4-3.5,14.5-3.4c25.5,0.6,50.9,10,76,5.3c6.2-1.2,13.1-4.1,14.4-10.2
		c1.1-5.2-2.4-10.2-5.7-14.4c-24.2-30.7-48.4-61.3-72.6-92c-18.9-24-38.6-48.6-65.6-63c-30.7-16.4-72.1-21.2-87.3-52.5
		c-5.3-10.9-6.2-23.4-7.1-35.5C217.3,138.3,213.3,90.5,189.7,51"/>
	<path class="st22" d="M223.5,272.5c-6.4-2.1-13.1-3.2-19.9-3.1c-6,0.1-13.7,3-13.3,9c0.4,5.8,7.9,7.8,13.8,8.2
		c4.8,0.3,9.9,0.5,13.9-2C222,281.9,227.3,275.4,223.5,272.5"/>
	<path class="st22" d="M260.5,315.4c-6.8,0.5-11.3,8.6-9.5,15.2c1.8,6.6,8.3,11,15,12.1c3.5,0.6,7.5,0.2,9.9-2.4
		c2.9-3.2,2.2-8.2,0.3-12.1c-1.8-3.9-4.6-7.3-5.6-11.5c-0.7-2.7-1-0.2-2.6-2.5C266.5,311.9,261,312.7,260.5,315.4"/>
	<path class="st22" d="M325.5,337.4c5.8,1.2,11.9,2.5,16.1,6.6c4.2,4.1,5.3,12,0.7,15.6c-2.4,1.8-5.6,2.1-8.6,1.8
		c-7.1-0.8-14.4-6.4-13.8-13.5c0.2-2.6,1.6-5.1,1.6-7.8c0-2.7,2.6-3.4,0-2.7"/>
	<path class="st4" d="M150.7,62.3c-2.9-2.8-6.1-4-10-3.2c-4.7,0.9-7.1,6.9-5.2,11.3c1.9,4.4,6.9,6.8,11.6,6.6
		c3.2-0.1,6.7-1.6,7.8-4.6C156,68.8,153.2,65.1,150.7,62.3"/>
	<path class="st21" d="M106.3,160.7c16.6,8.9,30.5,22.6,39.6,39.1c11.2,20.3,14.9,43.9,15.7,67c0.8,23.1-1.4,33.4-0.8,56.6
		c0.2,8.9-1.9,10.8-4.5,19.3c-1.5,4.8-4.1,9.4-8.3,12.1c-4.2,2.7-10.2,3-14-0.2c-4.4-3.8-5.7-10.7-7.1-16.3c-7.4-29.8-3.3-45.1-6-78
		c-2.1-26.1-2.2-48.2-6.3-75.8c-1.1-7.6-6.4-15.8-9.6-22.7"/>
</g>
</svg>
