<?xml version="1.0" encoding="utf-8"?>
<!-- Generator: Adobe Illustrator 24.1.0, SVG Export Plug-In . SVG Version: 6.00 Build 0)  -->
<svg version="1.1" id="Layer_1" xmlns="http://www.w3.org/2000/svg" xmlns:xlink="http://www.w3.org/1999/xlink" x="0px" y="0px"
	 viewBox="0 0 500 500" style="enable-background:new 0 0 500 500;" xml:space="preserve">
<style type="text/css">
	.st0{fill:#9DC2B5;}
	.st1{fill:#479D86;}
	.st2{fill:#F0C47C;}
	.st3{fill:#F49C00;}
	.st4{fill:#2B2F36;}
	.st5{fill:#F66F52;}
	.st6{fill:#FF2E00;}
	.st7{fill:#F4D7A6;}
	.st8{fill:#A3C3E0;}
	.st9{opacity:0.57;}
	.st10{fill:#4B8AC3;}
	.st11{fill:#E19FB3;}
	.st12{fill:#EFCED8;}
	.st13{fill:#F8E9D1;}
	.st14{fill:#D0E0ED;}
	.st15{fill:#D5EFEE;}
	.st16{fill:#FA907D;}
	.st17{fill:#57595D;}
	.st18{fill:#77A7D1;}
	.st19{fill:#F2F8F9;}
	.st20{fill:#DDDE83;}
	.st21{fill:#EAE9BA;}
	.st22{fill:#7EAF9E;}
	.st23{fill:#F9BEC0;}
	.st24{fill:#808083;}
	.st25{fill:#ECB14E;}
	.st26{fill:#FCECE4;}
	.st27{fill:#FBCDB6;}
	.st28{fill:#C3EBEC;}
	.st29{fill:#E681A3;}
	.st30{fill:#BED5CE;}
	.st31{fill:#E8B6C5;}
	.st32{fill:#0071B9;}
	.st33{fill:#FFAA7F;}
	.st34{fill:#DFF2F1;}
	.st35{fill:#F7E4E4;}
	.st36{fill:#F3CDCD;}
	.st37{fill:#FFF5EF;}
	.st38{fill:#DDE9E5;}
	.st39{fill:#F6F6E7;}
	.st40{fill:#F0F1D1;}
	.st41{fill:#F6E5EA;}
</style>
<g>
	<path class="st37" d="M149.3,116.8c-39.9,42.8-79.7,85.5-119.6,128.3c-6.1,6.6-12.4,13.4-15.5,21.9c-3.2,8.9-2.5,18.7-1.8,28.2
		c1.9,24.1,3.8,48.1,5.8,72.2c0.4,5.1,1.2,10.8,5.3,13.7c3,2.2,7,2.2,10.7,2.1c109.8-2.3,219.6-4.6,329.3-7c9.5-24.1-3-51-1.8-76.8
		c3.4-73.7,108.4-103.6,126.4-175.2c-116.6,1.2-233.2,2.4-349.8,3.6"/>
	<path class="st37" d="M366.8,373.6c16-25.9,32.2-52.2,55-72.3c14.2-12.6,30.8-22.7,42.9-37.4c28.4-34.5,25.1-85,13-128
		c-16.2,2.3-29.9,13-42.4,23.7c-12.3,10.5-24.2,21.3-35.8,32.5c-12.4,11.9-24.5,24.4-33.9,38.7c-26.6,40.5-28.9,95.7-5.9,138.3"/>
	<g>
		<path class="st35" d="M25.7,284.5c67.6,3.7,135.4,5.1,203.1,4.2c16.7-0.2,33.4-0.6,50.1-1.1c16.5-0.5,33.7,0.1,50.1-2.4
			c15-2.2,24.8-12.8,35.3-22.7c12.5-11.9,25-23.7,37.5-35.6c27.7-26.3,55.4-52.6,83.1-78.8c7.9-7.5-4-19.3-11.9-11.9
			c-24,22.8-48,45.5-72,68.3c-11.8,11.2-23.7,22.4-35.5,33.6c-5.7,5.4-11.5,10.9-17.2,16.3c-5,4.8-10,10.4-16.6,12.9
			c-6.8,2.6-15,2.1-22.2,2.4c-8.3,0.3-16.7,0.6-25,0.9c-16.7,0.5-33.4,0.9-50.1,1.2c-32.5,0.5-65,0.5-97.4-0.1
			c-37.1-0.6-74.2-2-111.3-4C14.9,267.1,15,283.9,25.7,284.5L25.7,284.5z"/>
	</g>
	<g>
		<path class="st35" d="M331.3,275.3c-4,17.2-4.3,34.9-0.6,52.1c3.8,17.4,12.1,33.5,20.3,49.2c5,9.6,19.5,1.1,14.5-8.5
			c-7.1-13.7-14.3-27.6-18-42.7c-3.7-15-3.5-30.6,0-45.7C349.9,269.3,333.7,264.8,331.3,275.3L331.3,275.3z"/>
	</g>
	<path class="st6" d="M253.2,157c-5.5,6.8-10.9,13.6-16.4,20.3c-1.7,2.1-3.4,4.2-5.7,5.4c-3.1,1.7-6.8,1.6-10.3,1.5
		c-15.5-0.4-30.9-0.9-46.4-1.3c-1.9-0.1-3.9-0.1-5.6,0.9c-1.9,1.1-2.8,3.4-3.6,5.4c-2.2,6.1-4,12.4-5.4,18.8
		c20,2.6,40.3,3.6,60.5,3.1c-7.6,11.7-15.3,23.3-22.9,35c6.5,2.2,13.1,4.4,20,4.5c6.9,0.1,14.1-2.3,18.3-7.7
		c3.7-4.7,4.5-11.1,7.7-16.2c5.2-8.6,16-12.2,26.1-12.5c10.1-0.3,20,2.1,30,2.7c2.9,0.2,6.1,0,8.1-2.1c1.5-1.5,1.9-3.8,2.3-5.9
		c1.2-7.2,2.5-14.5,3.7-21.7c0.2-1.3,0.4-2.7-0.2-3.8c-1-1.7-3.3-1.9-5.2-1.9c-13.4-0.1-26.7,0.3-40.1,1
		c6.4-10.2,13.7-19.8,21.8-28.7c-11.8,0.7-23.6,1.4-35.5,2.2"/>
</g>
</svg>
