<?xml version="1.0" encoding="utf-8"?>
<!-- Generator: Adobe Illustrator 24.1.0, SVG Export Plug-In . SVG Version: 6.00 Build 0)  -->
<svg version="1.1" id="Layer_1" xmlns="http://www.w3.org/2000/svg" xmlns:xlink="http://www.w3.org/1999/xlink" x="0px" y="0px"
	 viewBox="0 0 500 500" style="enable-background:new 0 0 500 500;" xml:space="preserve">
<style type="text/css">
	.st0{fill:#9DC2B5;}
	.st1{fill:#479D86;}
	.st2{fill:#F0C47C;}
	.st3{fill:#F49C00;}
	.st4{fill:#2B2F36;}
	.st5{fill:#F66F52;}
	.st6{fill:#FF2E00;}
	.st7{fill:#F4D7A6;}
	.st8{fill:#A3C3E0;}
	.st9{opacity:0.57;}
	.st10{fill:#4B8AC3;}
	.st11{fill:#E19FB3;}
	.st12{fill:#EFCED8;}
	.st13{fill:#F8E9D1;}
	.st14{fill:#D0E0ED;}
	.st15{fill:#D5EFEE;}
	.st16{fill:#FA907D;}
	.st17{fill:#57595D;}
	.st18{fill:#77A7D1;}
	.st19{fill:#F2F8F9;}
	.st20{fill:#DDDE83;}
	.st21{fill:#EAE9BA;}
	.st22{fill:#7EAF9E;}
	.st23{fill:#F9BEC0;}
	.st24{fill:#808083;}
	.st25{fill:#ECB14E;}
	.st26{fill:#FCECE4;}
	.st27{fill:#FBCDB6;}
	.st28{fill:#C3EBEC;}
	.st29{fill:#E681A3;}
	.st30{fill:#BED5CE;}
	.st31{fill:#E8B6C5;}
	.st32{fill:#0071B9;}
	.st33{fill:#FFAA7F;}
	.st34{fill:#DFF2F1;}
	.st35{fill:#F7E4E4;}
	.st36{fill:#F3CDCD;}
	.st37{fill:#FFF5EF;}
	.st38{fill:#DDE9E5;}
	.st39{fill:#F6F6E7;}
	.st40{fill:#F0F1D1;}
	.st41{fill:#F6E5EA;}
	.st42{fill:#FAF0F0;}
	.st43{fill:#F19900;}
	.st44{fill:#F1D4A3;}
	.st45{fill:#0071B5;}
	.st46{fill:#EFF5F6;}
	.st47{fill:#F36F52;}
	.st48{fill:#9ABFB2;}
	.st49{fill:#F0CACA;}
	.st50{fill:#77A4CE;}
	.st51{fill:#499A83;}
</style>
<g>
	<path class="st28" d="M394.7,370.2c37.6,1.7,55.3-24.7,70.8-59c7.8-17.3,13.1-36.3,10.9-55.1c-2.4-21-13.7-40-27.4-56
		C407,151.2,338.6,126.5,275,137.1c-25.4,4.2-51.5,14.9-65.9,36.3c-11.8,17.5-14.1,39.6-16,60.6c-3.2,34.5-5.4,72.8,15.9,100.2
		c16.6,21.4,44,31.1,70.4,36.9c26.9,5.9,59.9,13.7,67,40.4c2,7.7,4.3,18.7,12.2,18c4-0.3,6.9-4,9.1-7.4
		C378.3,405.7,387.4,388.3,394.7,370.2z"/>
	<path class="st20" d="M95.7,299.1c-37.6,1.7-55.3-24.7-70.8-59c-7.8-17.3-13.1-36.3-10.9-55.1c2.4-21,13.7-40,27.4-56
		C83.4,80.2,151.8,55.4,215.4,66c25.4,4.2,51.5,14.9,65.9,36.3c11.8,17.5,14.1,39.6,16,60.6c3.2,34.5,5.4,72.8-15.9,100.2
		c-16.6,21.4-44,31.1-70.4,36.9c-26.9,5.9-59.9,13.7-67,40.4c-2,7.7-4.3,18.7-12.2,18c-4-0.3-6.9-4-9.1-7.4
		C112.1,334.6,103,317.2,95.7,299.1z"/>
</g>
</svg>
