<?xml version="1.0" encoding="utf-8"?>
<!-- Generator: Adobe Illustrator 24.1.0, SVG Export Plug-In . SVG Version: 6.00 Build 0)  -->
<svg version="1.1" id="Layer_1" xmlns="http://www.w3.org/2000/svg" xmlns:xlink="http://www.w3.org/1999/xlink" x="0px" y="0px"
	 viewBox="0 0 2000 2000" style="enable-background:new 0 0 2000 2000;" xml:space="preserve">
<style type="text/css">
	.st0{fill:#DA88A3;}
	.st1{fill:#EBC686;}
	.st2{fill:#E7765B;}
	.st3{fill:#F9F3F5;}
	.st4{fill:#E5E3AC;}
	.st5{fill:#CCEBEC;}
</style>
<path class="st0" d="M1256.3,241.5c8.1,6.1,16.5,12,25,17.5c200.4,131.1,319.5,378,295.8,616.5c-17.5,176.2-105.7,347.3-78.3,522.2
	c8.4,53.8,27.6,105.6,33.2,159.7c14.5,140.5-73,283.3-201.5,341.8c-128.5,58.5-288.5,33.7-398.9-54.5
	c-110.3-88.2-169.6-233.5-161.2-374.5c3.6-60.3,18.5-121.4,5.5-180.3c-28.7-130-171.9-191.8-281.5-267.3
	c-158.1-109-273.5-307.3-221-492.1c22.2-78.2,71.3-145.5,119.5-211c72-97.8,151.9-201.4,268-237.2C761.9,51.2,870.7,78,973,104.7
	C1073.5,131,1173,178.8,1256.3,241.5"/>
</svg>
