<?xml version="1.0" encoding="utf-8"?>
<!-- Generator: Adobe Illustrator 24.1.0, SVG Export Plug-In . SVG Version: 6.00 Build 0)  -->
<svg version="1.1" id="Layer_1" xmlns="http://www.w3.org/2000/svg" xmlns:xlink="http://www.w3.org/1999/xlink" x="0px" y="0px"
	 viewBox="0 0 2000 2000" style="enable-background:new 0 0 2000 2000;" xml:space="preserve">
<style type="text/css">
	.st0{fill:#DA88A3;}
	.st1{fill:#EBC686;}
	.st2{fill:#E7765B;}
	.st3{fill:#F9F3F5;}
	.st4{fill:#E5E3AC;}
	.st5{fill:#CCEBEC;}
</style>
<g>
	<path class="st0" d="M542.7,190.3c-27.3,13.3-53.7,28.5-78.7,45.8c-56.8,39.1-108.1,86.4-134.3,149.2
		c-23.5,56.4-24.2,119.6-18.5,180.4c11.5,122.5,54.2,252,155.9,321.2c87.7,59.7,205.5,65.1,288.5,131.2
		c65.4,52.2,99.5,136.1,107.4,219.4c7.9,83.3-7.7,167-26.3,248.5c-17.3,75.9-37.4,155.3-16.6,230.3
		c25.6,92.3,108.6,157.8,195.5,197.9c118.6,54.7,260.1,72.8,379.5,19.9c119.4-52.9,205.3-188.6,175.4-315.7
		c-9.6-40.6-29.7-78.1-39.2-118.8c-20.8-89,11.7-182.5,58.7-261c47-78.4,108.4-147.6,154.1-226.8c60.8-105.6,92-228,89.1-349.8
		c-1-42.6-6.3-85.8-23.2-124.9c-14.3-33-36.4-62.1-60.2-89c-120.6-136.3-288.5-223.9-462.8-276.4c-118-35.5-239.7-51.5-362.2-64.1
		c-114.3-11.8-229.6,8.6-332.9,58.8L542.7,190.3z"/>
</g>
</svg>
