<?xml version="1.0" encoding="utf-8"?>
<!-- Generator: Adobe Illustrator 24.1.0, SVG Export Plug-In . SVG Version: 6.00 Build 0)  -->
<svg version="1.1" id="Layer_1" xmlns="http://www.w3.org/2000/svg" xmlns:xlink="http://www.w3.org/1999/xlink" x="0px" y="0px"
	 viewBox="0 0 500 500" style="enable-background:new 0 0 500 500;" xml:space="preserve">
<style type="text/css">
	.st0{fill:#9DC2B5;}
	.st1{fill:#479D86;}
	.st2{fill:#F0C47C;}
	.st3{fill:#F49C00;}
	.st4{fill:#2B2F36;}
	.st5{fill:#F66F52;}
	.st6{fill:#FF2E00;}
	.st7{fill:#F4D7A6;}
	.st8{fill:#A3C3E0;}
	.st9{opacity:0.57;}
	.st10{fill:#4B8AC3;}
	.st11{fill:#E19FB3;}
	.st12{fill:#EFCED8;}
	.st13{fill:#F8E9D1;}
	.st14{fill:#D0E0ED;}
	.st15{fill:#D5EFEE;}
	.st16{fill:#FA907D;}
	.st17{fill:#57595D;}
	.st18{fill:#77A7D1;}
	.st19{fill:#F2F8F9;}
	.st20{fill:#DDDE83;}
	.st21{fill:#EAE9BA;}
	.st22{fill:#7EAF9E;}
	.st23{fill:#F9BEC0;}
	.st24{fill:#808083;}
	.st25{fill:#ECB14E;}
	.st26{fill:#FCECE4;}
	.st27{fill:#FBCDB6;}
	.st28{fill:#C3EBEC;}
	.st29{fill:#E681A3;}
	.st30{fill:#BED5CE;}
	.st31{fill:#E8B6C5;}
	.st32{fill:#0071B9;}
	.st33{fill:#FFAA7F;}
	.st34{fill:#DFF2F1;}
	.st35{fill:#F7E4E4;}
	.st36{fill:#F3CDCD;}
	.st37{fill:#FFF5EF;}
	.st38{fill:#DDE9E5;}
	.st39{fill:#F6F6E7;}
	.st40{fill:#F0F1D1;}
	.st41{fill:#F6E5EA;}
	.st42{fill:#FAF0F0;}
	.st43{fill:#F19900;}
	.st44{fill:#F1D4A3;}
	.st45{fill:#0071B5;}
	.st46{fill:#EFF5F6;}
	.st47{fill:#F36F52;}
	.st48{fill:#9ABFB2;}
	.st49{fill:#F0CACA;}
	.st50{fill:#77A4CE;}
	.st51{fill:#499A83;}
</style>
<g>
	<path class="st43" d="M251.7,123.3c-29.3,1.2-48.8,7.6-76.5,17.1s-53.7,25.6-71.6,48.8c-15.1,19.6-23.8,43.2-32.2,66.4
		c-6.9,19-14,38.9-11.9,59c1.4,13.4,6.9,26.1,12.6,38.3c9,19,19,37.6,29.9,55.6c10.1,16.7,21.5,33.5,38.2,43.7
		c9.7,6,20.8,9.5,31.7,12.9c36.8,11.5,76.1,23,113.2,12.7c19.9-5.5,37.5-16.9,54.4-28.8c27-19.1,53.3-40.9,69.3-69.8
		c15.1-27.2,19.9-59.6,15.9-90.5s-16.7-60.3-34.3-85.9C358.9,156.9,307.2,121.6,251.7,123.3z"/>
	<g>
		<path class="st43" d="M246.8,16.2c-18.1-4.6-35,7-42,23.4c-6.6,15.7-8.6,40.3,5,52.9c13.7,12.6,34.3,15.1,51,7.5
			c15.7-7.2,29-24.5,26.8-42.4c-2.4-19.6-18.8-41.4-39.9-41.1c-9.7,0.1-9.7,15.2,0,15.1c14.4-0.1,27.5,20.3,24.7,33.6
			c-3,14.5-18.2,24.7-32.6,24.3c-7.2-0.2-15-3-20.2-8.2c-5.6-5.7-5-15-4.3-22.4c1.3-13.7,10.5-32.3,27.3-28.1
			C252.2,33.1,256.2,18.6,246.8,16.2L246.8,16.2z"/>
	</g>
	<g>
		<path class="st43" d="M225.7,96.1c-0.2,11.5,0.2,23,1.3,34.5c0.4,4.4,3.2,7,7.5,7.5c6,0.7,12,0.9,18.1,0.5
			c4.1-0.2,7.4-3.3,7.5-7.5c0.3-10.9-0.2-21.7-1.3-32.5c-0.4-4.3-3.1-7.1-7.5-7.5c-20.6-1.9-17.5,20.7-15.5,34.3
			c1.4,9.5,15.9,5.5,14.5-4c-0.6-3.8-0.9-7.6-1-11.4c0-1-0.4-2.8,0-3.8c0.5-1.4-0.5-0.3,2.1-0.1c-2.5-2.5-5-5-7.5-7.5
			c1.1,10.8,1.5,21.6,1.3,32.5c2.5-2.5,5-5,7.5-7.5c-6.1,0.3-12,0.2-18.1-0.5c2.5,2.5,5,5,7.5,7.5c-1-11.5-1.5-23-1.3-34.5
			C240.9,86.4,225.8,86.4,225.7,96.1L225.7,96.1z"/>
	</g>
	<path class="st44" d="M252.6,155.7c-28.1,3.2-52.2,11.4-79.1,20.2c-12.7,4.2-25.5,9.1-35.3,18.3c-14.6,13.7-19.9,34.4-24.5,54
		c-5.9,24.9-11.8,50.7-6.5,75.7c4.4,20.4,15.9,38.4,27.2,56c7.3,11.3,14.7,22.8,25.2,31.3c13.7,11.1,31.3,16,48.3,20.6
		c12.9,3.5,25.9,6.9,39.2,6.9c30.1-0.1,57.1-17.8,81.5-35.6c19.7-14.4,39.6-29.9,51.5-51.2c18.2-32.6,14.1-74-1.9-107.7
		C355,195.8,306.2,159.2,252.6,155.7"/>
</g>
<g>
	<g>
		<g>
			<path class="st17" d="M232.7,273.7c4.4-27.6,8-55.3,10.8-83.1c-0.6,0-1.1,0-1.7,0c-0.6,6.8,0.8,13.4,2.1,20.1
				c1.5,7.2,2.4,14.5,3,21.9c1,13.6,1.4,27.3,5.1,40.5c0.3-0.3,0.7-0.7,1-1c-6.8-2.6-14.2-2.7-21.1-0.3c-1,0.4-0.6,2,0.4,1.6
				c6.6-2.3,13.6-2.2,20.2,0.3c0.6,0.2,1.2-0.5,1-1c-3.8-13.4-4-27.3-5.1-41.1c-0.5-6.5-1.3-12.9-2.5-19.2
				c-1.4-7.2-3.1-14.3-2.5-21.7c0.1-1.1-1.6-1.1-1.7,0c-2.8,27.7-6.3,55.2-10.7,82.7C230.9,274.3,232.6,274.8,232.7,273.7
				L232.7,273.7z"/>
		</g>
		<g>
			<path class="st45" d="M243.6,270.1c0.5-22.5,0.3-45.1-0.5-67.6c0.3,7,2.3,13.9,3.4,20.9c2.4,15.9-0.2,32.5,4.1,48
				c1.2-2,0.9-4.8-0.6-6.6c-0.6,1.4-0.7,3-0.3,4.5c-2,0.6-4.1,0.8-6.1,0.6"/>
			<g>
				<path class="st17" d="M246.9,270.1c0.5-22.5,0.3-45.1-0.5-67.6c-2.2,0-4.5,0-6.7,0c0.4,6,1.7,11.7,2.8,17.6
					c1.1,5.8,1.5,11.7,1.7,17.6c0.3,11.6,0.1,23.2,3.1,34.5c0.7,2.6,4.8,3.5,6.1,0.8c1.6-3.3,1.6-6.9-0.6-10c-1.7-2.4-5.2-2-6.1,0.8
					c-0.7,2.1-0.7,4.1-0.3,6.2c0.8-1.4,1.6-2.7,2.3-4.1c-1.8,0.4-3.4,0.6-5.2,0.5c-4.3-0.2-4.3,6.5,0,6.7c2.4,0.1,4.7-0.1,7-0.7
					c1.8-0.5,2.7-2.4,2.3-4.1c-0.2-1,0-1.7,0.3-2.7c-2,0.3-4.1,0.5-6.1,0.8c0.7,1,1.1,2,0.6,3.2c2,0.3,4.1,0.5,6.1,0.8
					c-3-11-2.5-22.4-2.9-33.8c-0.2-5.5-0.6-10.9-1.5-16.3c-1-6-2.6-11.8-2.9-17.9c-0.3-4.3-6.8-4.3-6.7,0c0.9,22.5,1,45.1,0.5,67.6
					C240.2,274.4,246.8,274.4,246.9,270.1L246.9,270.1z"/>
			</g>
		</g>
		<g>
			<path class="st17" d="M251.3,269.8c-0.1-0.3-0.1-0.6-0.2-0.9c-1,0.4-2,0.9-3.1,1.3c0.5,0.7,1,1.3,1.7,1.9
				c0.5-0.9,1.1-1.9,1.6-2.8c-2-0.7-3.9-1-6-0.8c0.3,1,0.6,2.1,0.8,3.1c2.3-1.4,3.6-3.6,3.5-6.4c-1.1,0.1-2.2,0.3-3.3,0.4
				c0.2,1.1,0.4,2.2,0.6,3.2c0.3,1.4,2.4,1.6,3.1,0.4c2.3-4-0.1-8.4-0.4-12.6c-0.4-5.2-0.6-10.4-0.9-15.7c-0.1-2.1-3.5-2.2-3.3,0
				c0.3,4.6,0.5,9.2,0.8,13.8c0.1,1.7,0.2,3.4,0.5,5.1c0.4,2.5,1.9,5.3,0.5,7.7c1,0.1,2,0.3,3.1,0.4c-0.2-1.1-0.4-2.2-0.6-3.2
				c-0.3-1.9-3.4-1.4-3.3,0.4c0.1,1.6-0.5,2.7-1.8,3.5c-1.4,0.8-0.9,3.2,0.8,3.1c1.8-0.1,3.4,0.1,5.1,0.7c1.6,0.5,2.8-1.7,1.6-2.8
				c-0.4-0.4-0.8-0.8-1.1-1.3c-1.1-1.5-3.5-0.6-3.1,1.3c0.1,0.3,0.1,0.6,0.2,0.9C248.5,272.8,251.7,271.9,251.3,269.8L251.3,269.8z"
				/>
		</g>
		<g>
			<path class="st17" d="M243.3,268.6c0,0.4-0.1,0.8-0.1,1.1c0,0.4,0.2,0.9,0.5,1.2c0.3,0.3,0.8,0.5,1.2,0.5c0.4,0,0.9-0.2,1.2-0.5
				c0.3-0.3,0.4-0.7,0.5-1.2c0-0.4,0.1-0.8,0.1-1.1c0-0.4-0.2-0.9-0.5-1.2c-0.3-0.3-0.8-0.5-1.2-0.5c-0.4,0-0.9,0.2-1.2,0.5
				C243.5,267.8,243.4,268.2,243.3,268.6L243.3,268.6z"/>
		</g>
		<g>
			<path class="st17" d="M246.4,270c-0.3-20.4-1-40.8-0.6-61.1c0-2.2-3.3-2.2-3.3,0c-0.4,20.4,0.3,40.8,0.6,61.1
				C243.1,272.1,246.4,272.1,246.4,270L246.4,270z"/>
		</g>
		<g>
			<path class="st17" d="M243.9,208.1c-0.1-2.2-0.1-4.4-0.1-6.6c0-1.1-1.7-1.1-1.7,0c0,2.2,0,4.4,0.1,6.6
				C242.3,209.2,243.9,209.2,243.9,208.1L243.9,208.1z"/>
		</g>
	</g>
	<g>
		<g>
			<path class="st17" d="M252,309.9c-4.4,27.6-8,55.3-10.8,83.1c0.6,0,1.1,0,1.7,0c0.6-6.8-0.8-13.4-2.1-20.1
				c-1.5-7.2-2.4-14.5-3-21.9c-1-13.6-1.4-27.3-5.1-40.5c-0.3,0.3-0.7,0.7-1,1c6.8,2.6,14.2,2.7,21.1,0.3c1-0.4,0.6-2-0.4-1.6
				c-6.6,2.3-13.6,2.2-20.2-0.3c-0.6-0.2-1.2,0.5-1,1c3.8,13.4,4,27.3,5.1,41.1c0.5,6.5,1.3,12.9,2.5,19.2
				c1.4,7.2,3.1,14.3,2.5,21.7c-0.1,1.1,1.6,1.1,1.7,0c2.8-27.7,6.3-55.2,10.7-82.7C253.8,309.3,252.2,308.9,252,309.9L252,309.9z"
				/>
		</g>
		<g>
			<path class="st45" d="M241.2,313.5c-0.5,22.5-0.3,45.1,0.5,67.6c-0.3-7-2.3-13.9-3.4-20.9c-2.4-15.9,0.2-32.5-4.1-48
				c-1.2,2-0.9,4.8,0.6,6.6c0.6-1.4,0.7-3,0.3-4.5c2-0.6,4.1-0.8,6.1-0.6"/>
			<g>
				<path class="st17" d="M237.8,313.5c-0.5,22.5-0.3,45.1,0.5,67.6c2.2,0,4.5,0,6.7,0c-0.4-6-1.7-11.7-2.8-17.6
					c-1.1-5.8-1.5-11.7-1.7-17.6c-0.3-11.6-0.1-23.2-3.1-34.5c-0.7-2.6-4.8-3.5-6.1-0.8c-1.6,3.3-1.6,6.9,0.6,10
					c1.7,2.4,5.2,2,6.1-0.8c0.7-2.1,0.7-4.1,0.3-6.2c-0.8,1.4-1.6,2.7-2.3,4.1c1.8-0.4,3.4-0.6,5.2-0.5c4.3,0.2,4.3-6.5,0-6.7
					c-2.4-0.1-4.7,0.1-7,0.7c-1.8,0.5-2.7,2.4-2.3,4.1c0.2,1,0,1.7-0.3,2.7c2-0.3,4.1-0.5,6.1-0.8c-0.7-1-1.1-2-0.6-3.2
					c-2-0.3-4.1-0.5-6.1-0.8c3,11,2.5,22.4,2.9,33.8c0.2,5.5,0.6,10.9,1.5,16.3c1,6,2.6,11.8,2.9,17.9c0.3,4.3,6.8,4.3,6.7,0
					c-0.9-22.5-1-45.1-0.5-67.6C244.6,309.2,237.9,309.2,237.8,313.5L237.8,313.5z"/>
			</g>
		</g>
		<g>
			<path class="st17" d="M233.5,313.8c0.1,0.3,0.1,0.6,0.2,0.9c1-0.4,2-0.9,3.1-1.3c-0.5-0.7-1-1.3-1.7-1.9
				c-0.5,0.9-1.1,1.9-1.6,2.8c2,0.7,3.9,1,6,0.8c-0.3-1-0.6-2.1-0.8-3.1c-2.3,1.4-3.6,3.6-3.5,6.4c1.1-0.1,2.2-0.3,3.3-0.4
				c-0.2-1.1-0.4-2.2-0.6-3.2c-0.3-1.4-2.4-1.6-3.1-0.4c-2.3,4,0.1,8.4,0.4,12.6c0.4,5.2,0.6,10.4,0.9,15.7c0.1,2.1,3.5,2.2,3.3,0
				c-0.3-4.6-0.5-9.2-0.8-13.8c-0.1-1.7-0.2-3.4-0.5-5.1c-0.4-2.5-1.9-5.3-0.5-7.7c-1-0.1-2-0.3-3.1-0.4c0.2,1.1,0.4,2.2,0.6,3.2
				c0.3,1.9,3.4,1.4,3.3-0.4c-0.1-1.6,0.5-2.7,1.8-3.5c1.4-0.8,0.9-3.2-0.8-3.1c-1.8,0.1-3.4-0.1-5.1-0.7c-1.6-0.5-2.8,1.7-1.6,2.8
				c0.4,0.4,0.8,0.8,1.1,1.3c1.1,1.5,3.5,0.6,3.1-1.3c-0.1-0.3-0.1-0.6-0.2-0.9C236.3,310.8,233,311.7,233.5,313.8L233.5,313.8z"/>
		</g>
		<g>
			<path class="st17" d="M241.4,315c0-0.4,0.1-0.8,0.1-1.1c0-0.4-0.2-0.9-0.5-1.2c-0.3-0.3-0.8-0.5-1.2-0.5c-0.4,0-0.9,0.2-1.2,0.5
				c-0.3,0.3-0.4,0.7-0.5,1.2c0,0.4-0.1,0.8-0.1,1.1c0,0.4,0.2,0.9,0.5,1.2c0.3,0.3,0.8,0.5,1.2,0.5c0.4,0,0.9-0.2,1.2-0.5
				C241.3,315.8,241.4,315.5,241.4,315L241.4,315z"/>
		</g>
		<g>
			<path class="st17" d="M238.4,313.7c0.3,20.4,1,40.8,0.6,61.1c0,2.2,3.3,2.2,3.3,0c0.4-20.4-0.3-40.8-0.6-61.1
				C241.7,311.5,238.4,311.5,238.4,313.7L238.4,313.7z"/>
		</g>
		<g>
			<path class="st17" d="M240.9,375.5c0.1,2.2,0.1,4.4,0.1,6.6c0,1.1,1.7,1.1,1.7,0c0-2.2,0-4.4-0.1-6.6
				C242.5,374.4,240.8,374.4,240.9,375.5L240.9,375.5z"/>
		</g>
	</g>
	<g>
		<g>
			<path class="st17" d="M224.9,301.4c-27.6-4.4-55.3-8-83.1-10.8c0,0.6,0,1.1,0,1.7c6.8,0.6,13.4-0.8,20.1-2.1
				c7.2-1.5,14.5-2.4,21.9-3c13.6-1,27.3-1.4,40.5-5.1c-0.3-0.3-0.7-0.7-1-1c-2.6,6.8-2.7,14.2-0.3,21.1c0.4,1,2,0.6,1.6-0.4
				c-2.3-6.6-2.2-13.6,0.3-20.2c0.2-0.6-0.5-1.2-1-1c-13.4,3.8-27.3,4-41.1,5.1c-6.5,0.5-12.9,1.3-19.2,2.5
				c-7.2,1.4-14.3,3.1-21.7,2.5c-1.1-0.1-1.1,1.6,0,1.7c27.7,2.8,55.2,6.3,82.7,10.7C225.5,303.1,226,301.5,224.9,301.4L224.9,301.4
				z"/>
		</g>
		<g>
			<path class="st45" d="M221.3,290.5c-22.5-0.5-45.1-0.3-67.6,0.5c7-0.3,13.9-2.3,20.9-3.4c15.9-2.4,32.5,0.2,48-4.1
				c-2-1.2-4.8-0.9-6.6,0.6c1.4,0.6,3,0.7,4.5,0.3c0.6,2,0.8,4.1,0.6,6.1"/>
			<g>
				<path class="st17" d="M221.3,287.1c-22.5-0.5-45.1-0.3-67.6,0.5c0,2.2,0,4.5,0,6.7c6-0.4,11.7-1.7,17.6-2.8
					c5.8-1.1,11.7-1.5,17.6-1.7c11.6-0.3,23.2-0.1,34.5-3.1c2.6-0.7,3.5-4.8,0.8-6.1c-3.3-1.6-6.9-1.6-10,0.6
					c-2.4,1.7-2,5.2,0.8,6.1c2.1,0.7,4.1,0.7,6.2,0.3c-1.4-0.8-2.7-1.6-4.1-2.3c0.4,1.8,0.6,3.4,0.5,5.2c-0.2,4.3,6.5,4.3,6.7,0
					c0.1-2.4-0.1-4.7-0.7-7c-0.5-1.8-2.4-2.7-4.1-2.3c-1,0.2-1.7,0-2.7-0.3c0.3,2,0.5,4.1,0.8,6.1c1-0.7,2-1.1,3.2-0.6
					c0.3-2,0.5-4.1,0.8-6.1c-11,3-22.4,2.5-33.8,2.9c-5.5,0.2-10.9,0.6-16.3,1.5c-6,1-11.8,2.6-17.9,2.9c-4.3,0.3-4.3,6.8,0,6.7
					c22.5-0.9,45.1-1,67.6-0.5C225.6,293.9,225.6,287.2,221.3,287.1L221.3,287.1z"/>
			</g>
		</g>
		<g>
			<path class="st17" d="M221.1,282.8c-0.3,0.1-0.6,0.1-0.9,0.2c0.4,1,0.9,2,1.3,3.1c0.7-0.5,1.3-1,1.9-1.7
				c-0.9-0.5-1.9-1.1-2.8-1.6c-0.7,2-1,3.9-0.8,6c1-0.3,2.1-0.6,3.1-0.8c-1.4-2.3-3.6-3.6-6.4-3.5c0.1,1.1,0.3,2.2,0.4,3.3
				c1.1-0.2,2.2-0.4,3.2-0.6c1.4-0.3,1.6-2.4,0.4-3.1c-4-2.3-8.4,0.1-12.6,0.4c-5.2,0.4-10.4,0.6-15.7,0.9c-2.1,0.1-2.2,3.5,0,3.3
				c4.6-0.3,9.2-0.5,13.8-0.8c1.7-0.1,3.4-0.2,5.1-0.5c2.5-0.4,5.3-1.9,7.7-0.5c0.1-1,0.3-2,0.4-3.1c-1.1,0.2-2.2,0.4-3.2,0.6
				c-1.9,0.3-1.4,3.4,0.4,3.3c1.6-0.1,2.7,0.5,3.5,1.8c0.8,1.4,3.2,0.9,3.1-0.8c-0.1-1.8,0.1-3.4,0.7-5.1c0.5-1.6-1.7-2.8-2.8-1.6
				c-0.4,0.4-0.8,0.8-1.3,1.1c-1.5,1.1-0.6,3.5,1.3,3.1c0.3-0.1,0.6-0.1,0.9-0.2C224.1,285.6,223.2,282.4,221.1,282.8L221.1,282.8z"
				/>
		</g>
		<g>
			<path class="st17" d="M219.9,290.7c0.4,0,0.8,0.1,1.1,0.1c0.4,0,0.9-0.2,1.2-0.5c0.3-0.3,0.5-0.8,0.5-1.2c0-0.4-0.2-0.9-0.5-1.2
				c-0.3-0.3-0.7-0.4-1.2-0.5c-0.4,0-0.8-0.1-1.1-0.1c-0.4,0-0.9,0.2-1.2,0.5c-0.3,0.3-0.5,0.8-0.5,1.2c0,0.4,0.2,0.9,0.5,1.2
				C219,290.6,219.4,290.7,219.9,290.7L219.9,290.7z"/>
		</g>
		<g>
			<path class="st17" d="M221.2,287.7c-20.4,0.3-40.8,1-61.1,0.6c-2.2,0-2.2,3.3,0,3.3c20.4,0.4,40.8-0.3,61.1-0.6
				C223.4,291,223.4,287.7,221.2,287.7L221.2,287.7z"/>
		</g>
		<g>
			<path class="st17" d="M159.4,290.2c-2.2,0.1-4.4,0.1-6.6,0.1c-1.1,0-1.1,1.7,0,1.7c2.2,0,4.4,0,6.6-0.1
				C160.4,291.8,160.4,290.1,159.4,290.2L159.4,290.2z"/>
		</g>
	</g>
	<g>
		<g>
			<path class="st17" d="M261.6,282c27.6,4.4,55.3,8,83.1,10.8c0-0.6,0-1.1,0-1.7c-6.8-0.6-13.4,0.8-20.1,2.1
				c-7.2,1.5-14.5,2.4-21.9,3c-13.6,1-27.3,1.4-40.5,5.1c0.3,0.3,0.7,0.7,1,1c2.6-6.8,2.7-14.2,0.3-21.1c-0.4-1-2-0.6-1.6,0.4
				c2.3,6.6,2.2,13.6-0.3,20.2c-0.2,0.6,0.5,1.2,1,1c13.4-3.8,27.3-4,41.1-5.1c6.5-0.5,12.9-1.3,19.2-2.5c7.2-1.4,14.3-3.1,21.7-2.5
				c1.1,0.1,1.1-1.6,0-1.7c-27.7-2.8-55.2-6.3-82.7-10.7C261,280.3,260.5,281.9,261.6,282L261.6,282z"/>
		</g>
		<g>
			<path class="st45" d="M265.2,292.9c22.5,0.5,45.1,0.3,67.6-0.5c-7,0.3-13.9,2.3-20.9,3.4c-15.9,2.4-32.5-0.2-48,4.1
				c2,1.2,4.8,0.9,6.6-0.6c-1.4-0.6-3-0.7-4.5-0.3c-0.6-2-0.8-4.1-0.6-6.1"/>
			<g>
				<path class="st17" d="M265.2,296.3c22.5,0.5,45.1,0.3,67.6-0.5c0-2.2,0-4.5,0-6.7c-6,0.4-11.7,1.7-17.6,2.8
					c-5.8,1.1-11.7,1.5-17.6,1.7c-11.6,0.3-23.2,0.1-34.5,3.1c-2.6,0.7-3.5,4.8-0.8,6.1c3.3,1.6,6.9,1.6,10-0.6
					c2.4-1.7,2-5.2-0.8-6.1c-2.1-0.7-4.1-0.7-6.2-0.3c1.4,0.8,2.7,1.6,4.1,2.3c-0.4-1.8-0.6-3.4-0.5-5.2c0.2-4.3-6.5-4.3-6.7,0
					c-0.1,2.4,0.1,4.7,0.7,7c0.5,1.8,2.4,2.7,4.1,2.3c1-0.2,1.7,0,2.7,0.3c-0.3-2-0.5-4.1-0.8-6.1c-1,0.7-2,1.1-3.2,0.6
					c-0.3,2-0.5,4.1-0.8,6.1c11-3,22.4-2.5,33.8-2.9c5.5-0.2,10.9-0.6,16.3-1.5c6-1,11.8-2.6,17.9-2.9c4.3-0.3,4.3-6.8,0-6.7
					c-22.5,0.9-45.1,1-67.6,0.5C260.9,289.5,260.9,296.2,265.2,296.3L265.2,296.3z"/>
			</g>
		</g>
		<g>
			<path class="st17" d="M265.4,300.6c0.3-0.1,0.6-0.1,0.9-0.2c-0.4-1-0.9-2-1.3-3.1c-0.7,0.5-1.3,1-1.9,1.7
				c0.9,0.5,1.9,1.1,2.8,1.6c0.7-2,1-3.9,0.8-6c-1,0.3-2.1,0.6-3.1,0.8c1.4,2.3,3.6,3.6,6.4,3.5c-0.1-1.1-0.3-2.2-0.4-3.3
				c-1.1,0.2-2.2,0.4-3.2,0.6c-1.4,0.3-1.6,2.4-0.4,3.1c4,2.3,8.4-0.1,12.6-0.4c5.2-0.4,10.4-0.6,15.7-0.9c2.1-0.1,2.2-3.5,0-3.3
				c-4.6,0.3-9.2,0.5-13.8,0.8c-1.7,0.1-3.4,0.2-5.1,0.5c-2.5,0.4-5.3,1.9-7.7,0.5c-0.1,1-0.3,2-0.4,3.1c1.1-0.2,2.2-0.4,3.2-0.6
				c1.9-0.3,1.4-3.4-0.4-3.3c-1.6,0.1-2.7-0.5-3.5-1.8c-0.8-1.4-3.2-0.9-3.1,0.8c0.1,1.8-0.1,3.4-0.7,5.1c-0.5,1.6,1.7,2.8,2.8,1.6
				c0.4-0.4,0.8-0.8,1.3-1.1c1.5-1.1,0.6-3.5-1.3-3.1c-0.3,0.1-0.6,0.1-0.9,0.2C262.4,297.8,263.3,301,265.4,300.6L265.4,300.6z"/>
		</g>
		<g>
			<path class="st17" d="M266.6,292.7c-0.4,0-0.8-0.1-1.1-0.1c-0.4,0-0.9,0.2-1.2,0.5c-0.3,0.3-0.5,0.8-0.5,1.2
				c0,0.4,0.2,0.9,0.5,1.2c0.3,0.3,0.7,0.4,1.2,0.5c0.4,0,0.8,0.1,1.1,0.1c0.4,0,0.9-0.2,1.2-0.5c0.3-0.3,0.5-0.8,0.5-1.2
				c0-0.4-0.2-0.9-0.5-1.2C267.5,292.8,267.1,292.7,266.6,292.7L266.6,292.7z"/>
		</g>
		<g>
			<path class="st17" d="M265.3,295.7c20.4-0.3,40.8-1,61.1-0.6c2.2,0,2.2-3.3,0-3.3c-20.4-0.4-40.8,0.3-61.1,0.6
				C263.2,292.4,263.2,295.7,265.3,295.7L265.3,295.7z"/>
		</g>
		<g>
			<path class="st17" d="M327.2,293.2c2.2-0.1,4.4-0.1,6.6-0.1c1.1,0,1.1-1.7,0-1.7c-2.2,0-4.4,0-6.6,0.1
				C326.1,291.6,326.1,293.2,327.2,293.2L327.2,293.2z"/>
		</g>
	</g>
	<g>
		<path class="st17" d="M247.6,268.3c-9.7,0.3-21.5,1.7-25.9,11.8c-2.1,4.7-3,11.1-2,16.1c0.8,4.4,3.9,9.1,7.1,12.2
			c3.7,3.6,8.5,4.7,13.6,5.2c4.4,0.5,9.1,0.3,13.2-1.4c4.4-1.8,7.5-5.1,9.3-9.4c2-4.5,3.6-9.9,3.6-14.9c0.2-10.2-8.7-18.8-18.8-18.8
			c-4.3,0-4.3,6.7,0,6.7c4,0,7.7,2,10,5.3c2.7,3.8,2.3,8,1.2,12.3c-1,4-2.1,8.9-5.7,11.5c-3.2,2.4-7.6,2.5-11.4,2.3
			c-4.4-0.3-8.7-1-11.6-4.6c-1.4-1.8-2.9-4-3.7-6.1c-0.9-2.3-0.6-4.9-0.3-7.3c0.6-4.6,1.9-8.7,6.1-11.2c4.6-2.7,10.1-2.8,15.2-2.9
			C251.9,274.8,251.9,268.2,247.6,268.3L247.6,268.3z"/>
	</g>
	<g>
		<path class="st17" d="M241,289.2c0.6-0.9,1.5-1.2,2.5-1.1c0.5,0.3,1,0.6,1.5,0.9c0.8,0.9,0.8,2.1-0.2,2.8
			c-0.7,0.5-1.6,0.6-2.2-0.1c-0.2-0.2-0.4-0.5-0.4-0.8c0-0.3,0.2-0.7,0-0.3c0.1-0.1,0.5-0.8,0.2-0.5c0.1-0.1,0.3-0.2,0.4-0.3
			c-0.2,0.1-0.2,0.1,0.1,0c0.3-0.1,0.3-0.1,0.1-0.1c-0.3,0.1-0.1,0.1,0.4,0c-0.1,0-0.7-0.1-0.1,0c0.7,0.2,0-0.1-0.1-0.1
			c0.5,0.2,0.6,0.3,0.4,0.2c-0.1,0-0.2-0.1-0.2-0.1c0.1,0.1,0.3,0.2,0.4,0.3c-0.2-0.2-0.2-0.2,0,0.1c0.1,0.2,0.4,1,0.3,0.5
			c0.1,0.2,0.1,0.4,0,0.5c0,0.3,0,0.2,0.1-0.1c0,0.1-0.1,0.2-0.1,0.3c0.2-0.3,0.2-0.3,0,0c1.2-1.3,1.4-3.4,0-4.7
			c-1.3-1.2-3.5-1.4-4.7,0c-1.4,1.7-2.2,3.7-1.6,5.9c0.5,1.8,1.9,3,3.6,3.6c3.6,1.3,7.6-1.4,7.6-5.2c0-2.3-1.4-4.3-3.6-5.1
			c-2-0.7-4.1,0-5.4,1.7c-1.4,1.8-1.3,4.4,0.2,6.1c1.9,2,5.3,1.3,6.7-1c0.9-1.5,0.4-3.7-1.2-4.6C244,287.2,242,287.6,241,289.2
			L241,289.2z"/>
	</g>
</g>
</svg>
