<?xml version="1.0" encoding="utf-8"?>
<!-- Generator: Adobe Illustrator 24.1.0, SVG Export Plug-In . SVG Version: 6.00 Build 0)  -->
<svg version="1.1" id="Layer_1" xmlns="http://www.w3.org/2000/svg" xmlns:xlink="http://www.w3.org/1999/xlink" x="0px" y="0px"
	 viewBox="0 0 500 500" style="enable-background:new 0 0 500 500;" xml:space="preserve">
<style type="text/css">
	.st0{fill:#9DC2B5;}
	.st1{fill:#479D86;}
	.st2{fill:#F0C47C;}
	.st3{fill:#F49C00;}
	.st4{fill:#2B2F36;}
	.st5{fill:#F66F52;}
	.st6{fill:#FF2E00;}
	.st7{fill:#F4D7A6;}
	.st8{fill:#A3C3E0;}
	.st9{opacity:0.57;}
	.st10{fill:#4B8AC3;}
	.st11{fill:#E19FB3;}
	.st12{fill:#EFCED8;}
	.st13{fill:#F8E9D1;}
	.st14{fill:#D0E0ED;}
	.st15{fill:#D5EFEE;}
	.st16{fill:#FA907D;}
	.st17{fill:#57595D;}
	.st18{fill:#77A7D1;}
	.st19{fill:#F2F8F9;}
	.st20{fill:#DDDE83;}
	.st21{fill:#EAE9BA;}
	.st22{fill:#7EAF9E;}
	.st23{fill:#F9BEC0;}
	.st24{fill:#808083;}
	.st25{fill:#ECB14E;}
	.st26{fill:#FCECE4;}
	.st27{fill:#FBCDB6;}
	.st28{fill:#C3EBEC;}
	.st29{fill:#E681A3;}
	.st30{fill:#BED5CE;}
	.st31{fill:#E8B6C5;}
	.st32{fill:#0071B9;}
	.st33{fill:#FFAA7F;}
	.st34{fill:#DFF2F1;}
	.st35{fill:#F7E4E4;}
	.st36{fill:#F3CDCD;}
	.st37{fill:#FFF5EF;}
	.st38{fill:#DDE9E5;}
	.st39{fill:#F6F6E7;}
	.st40{fill:#F0F1D1;}
	.st41{fill:#F6E5EA;}
	.st42{fill:#FAF0F0;}
	.st43{fill:#F19900;}
	.st44{fill:#F1D4A3;}
	.st45{fill:#0071B5;}
	.st46{fill:#EFF5F6;}
	.st47{fill:#F36F52;}
	.st48{fill:#9ABFB2;}
	.st49{fill:#F0CACA;}
	.st50{fill:#77A4CE;}
	.st51{fill:#499A83;}
</style>
<path class="st48" d="M114.6,283.6c0.5,53.2,1,106.4,1.5,159.6c29.6,0.6,59.2,2.6,88.6,6c1-51.6,0.5-107-5.6-158.3
	c-0.2-2-0.6-4.2-2.2-5.4c-1.2-1-5,2.6-6.6,2.6c-25.8-1-51.6-1.9-77.5-2.9"/>
<path class="st48" d="M293.4,292.6c-3.2,56.2-2.6,112.5,1.8,168.6c29.7,4,59.8,5.1,89.7,3.3c-3.1-55.4-1.2-116-0.4-171.4
	c-31.3-1.2-59.7-1.6-91-3.2L293.4,292.6z"/>
<path class="st49" d="M110.6,197.3c-0.7,28-2.8,55.6-1.3,83.6c0.1,1.2,0.1,2.4,0.9,3.3c1,1.3,2.9,1.5,4.6,1.6
	c24.5,1.1,49,2,73.5,2.9c2.5,0.1,5,0.2,7.3-0.8c3.3-1.4,5.3-4.6,7.5-7.4c7.6-10.1,18.8-17.7,31.1-20.5c12.4-2.8,25.9-0.8,36.6,5.9
	c7.2,4.5,13.1,11,17.5,18.3c1.8,3,3.6,6.4,6.9,7.6c1.4,0.6,3,0.6,4.6,0.7c15,0.6,30.1,1.2,45.1,1.8c5.9,0.2,11.7,0.5,17.6,0.7
	c7.5,0.3,14.9,0.6,22.4,0.9c0.8,0,1.7,0,2.3-0.5c0.6-0.6,0.7-1.5,0.7-2.4c0.1-27.3,0.2-54.6,0.3-82c0-0.9,0-1.9-0.6-2.5
	c-0.6-0.7-1.7-0.8-2.6-0.8c-8.7-0.3-17.4-0.7-26.1-1c-24.8-1-49.7-1.9-74.6-1.8c-12,0.1-24.1,0.4-36-1c-5.1-0.6-10.3-1.6-15.4-1.5
	c-7.4,0.2-14.5,2.5-21.9,3.1c-11.4,0.9-22.6-2.2-33.9-3.4c-15.6-1.6-31.6,0.8-46.9-2.6c-7.2-1.6-11.5-4-18.7-2.5L110.6,197.3z"/>
<path class="st50" d="M193.2,117c-0.3,29.3-0.1,58.5,0.7,87.8c8.9,1.1,17.8,2.2,26.7,1.9c4.6-0.2,9.2-0.7,13.7-0.3
	c3.7,0.3,7.3,1.3,11,1.9c12.9,2.3,26.1,0.9,39.1-0.4c0.7-0.1,1.5-0.2,2-0.7c0.6-0.6,0.6-1.5,0.6-2.3c-0.4-27.9-0.9-55.9-1.3-83.8
	c0-0.8-0.1-1.6-0.6-2.2c-0.6-0.6-1.6-0.7-2.4-0.7c-2.2,0-4.4,0-6.6,0.1c-16.2,0.2-32.5,0.4-48.7-1c-11.3-0.9-22.7-2.6-33.8-0.4"/>
<path class="st43" d="M147.3,119.2C173.4,90,199.5,61,225.9,32c1.2-1.3,2.4-2.6,4.1-2.9c2-0.4,3.9,0.7,5.6,1.9
	c36.4,24,61.1,62,94.5,90c-5.7,1.8-11.7-0.1-17.6-1.1c-14.3-2.4-28.9,1.2-43.5,1.5c-7.5,0.2-15-0.5-22.4-1.1
	c-33.1-2.6-66.5-3-99.6-1.3"/>
</svg>
