<?xml version="1.0" encoding="utf-8"?>
<!-- Generator: Adobe Illustrator 24.1.0, SVG Export Plug-In . SVG Version: 6.00 Build 0)  -->
<svg version="1.1" id="Layer_1" xmlns="http://www.w3.org/2000/svg" xmlns:xlink="http://www.w3.org/1999/xlink" x="0px" y="0px"
	 viewBox="0 0 500 500" style="enable-background:new 0 0 500 500;" xml:space="preserve">
<style type="text/css">
	.st0{fill:#9DC2B5;}
	.st1{fill:#479D86;}
	.st2{fill:#F0C47C;}
	.st3{fill:#F49C00;}
	.st4{fill:#2B2F36;}
	.st5{fill:#F66F52;}
	.st6{fill:#FF2E00;}
	.st7{fill:#F4D7A6;}
	.st8{fill:#A3C3E0;}
	.st9{opacity:0.57;}
	.st10{fill:#4B8AC3;}
	.st11{fill:#E19FB3;}
	.st12{fill:#EFCED8;}
	.st13{fill:#F8E9D1;}
	.st14{fill:#D0E0ED;}
	.st15{fill:#D5EFEE;}
	.st16{fill:#FA907D;}
	.st17{fill:#57595D;}
	.st18{fill:#77A7D1;}
	.st19{fill:#F2F8F9;}
	.st20{fill:#DDDE83;}
	.st21{fill:#EAE9BA;}
	.st22{fill:#7EAF9E;}
	.st23{fill:#F9BEC0;}
	.st24{fill:#808083;}
	.st25{fill:#ECB14E;}
	.st26{fill:#FCECE4;}
	.st27{fill:#FBCDB6;}
	.st28{fill:#C3EBEC;}
	.st29{fill:#E681A3;}
	.st30{fill:#BED5CE;}
	.st31{fill:#E8B6C5;}
	.st32{fill:#0071B9;}
	.st33{fill:#FFAA7F;}
	.st34{fill:#DFF2F1;}
	.st35{fill:#F7E4E4;}
	.st36{fill:#F3CDCD;}
	.st37{fill:#FFF5EF;}
	.st38{fill:#DDE9E5;}
	.st39{fill:#F6F6E7;}
	.st40{fill:#F0F1D1;}
	.st41{fill:#F6E5EA;}
	.st42{fill:#FAF0F0;}
	.st43{fill:#F19900;}
	.st44{fill:#F1D4A3;}
	.st45{fill:#0071B5;}
	.st46{fill:#EFF5F6;}
	.st47{fill:#F36F52;}
	.st48{fill:#9ABFB2;}
	.st49{fill:#F0CACA;}
	.st50{fill:#77A4CE;}
	.st51{fill:#499A83;}
</style>
<path class="st6" d="M275.9,210.1c8.3-85.1-63-169.7-148.2-176c-16.8-1.2-34.6,0.5-48.5,9.8c-10.8,7.2-18.3,18.2-25.4,29.1
	c-19.6,30-38.5,62.8-38.4,98.6c0.1,45.9,31,85.4,60.3,120.7c44.5,53.7,89.1,107.3,133.6,161c4.1,5,8.8,10.3,15.1,11.7
	c6.3,1.4,12.7-1.4,18.5-4.2c76-36.4,150.4-83.8,195-155.2s52.1-171.4-1.2-236.6c-7.1-8.7-15.3-16.7-25.1-22c-8.7-4.7-18.4-7-28-9
	c-28.5-5.6-59-7.3-85.6,4.4c-26.6,11.7-47.5,39.8-43.1,68.5"/>
</svg>
