<?xml version="1.0" encoding="utf-8"?>
<!-- Generator: Adobe Illustrator 24.1.0, SVG Export Plug-In . SVG Version: 6.00 Build 0)  -->
<svg version="1.1" id="Layer_1" xmlns="http://www.w3.org/2000/svg" xmlns:xlink="http://www.w3.org/1999/xlink" x="0px" y="0px"
	 viewBox="0 0 500 500" style="enable-background:new 0 0 500 500;" xml:space="preserve">
<style type="text/css">
	.st0{fill:#9DC2B5;}
	.st1{fill:#479D86;}
	.st2{fill:#F0C47C;}
	.st3{fill:#F49C00;}
	.st4{fill:#2B2F36;}
	.st5{fill:#F66F52;}
	.st6{fill:#FF2E00;}
	.st7{fill:#F4D7A6;}
	.st8{fill:#A3C3E0;}
	.st9{opacity:0.57;}
	.st10{fill:#4B8AC3;}
	.st11{fill:#E19FB3;}
	.st12{fill:#EFCED8;}
	.st13{fill:#F8E9D1;}
	.st14{fill:#D0E0ED;}
	.st15{fill:#D5EFEE;}
	.st16{fill:#FA907D;}
	.st17{fill:#57595D;}
	.st18{fill:#77A7D1;}
	.st19{fill:#F2F8F9;}
	.st20{fill:#DDDE83;}
	.st21{fill:#EAE9BA;}
	.st22{fill:#7EAF9E;}
	.st23{fill:#F9BEC0;}
	.st24{fill:#808083;}
	.st25{fill:#ECB14E;}
	.st26{fill:#FCECE4;}
	.st27{fill:#FBCDB6;}
	.st28{fill:#C3EBEC;}
	.st29{fill:#E681A3;}
	.st30{fill:#BED5CE;}
	.st31{fill:#E8B6C5;}
	.st32{fill:#0071B9;}
	.st33{fill:#FFAA7F;}
	.st34{fill:#DFF2F1;}
	.st35{fill:#F7E4E4;}
	.st36{fill:#F3CDCD;}
	.st37{fill:#FFF5EF;}
	.st38{fill:#DDE9E5;}
	.st39{fill:#F6F6E7;}
	.st40{fill:#F0F1D1;}
	.st41{fill:#F6E5EA;}
	.st42{fill:#F19900;}
	.st43{fill:#F1D4A3;}
	.st44{fill:#0071B5;}
	.st45{fill:#EFF5F6;}
	.st46{fill:#F36F52;}
	.st47{fill:#9ABFB2;}
	.st48{fill:#F0CACA;}
	.st49{fill:#77A4CE;}
	.st50{fill:#499A83;}
	.st51{fill:#FFA77C;}
	.st52{fill:#DADB80;}
	.st53{fill:#4C87C0;}
	.st54{fill:#F5CFBA;}
	.st55{fill:#F5451F;}
	.st56{fill:#F1D8AD;}
	.st57{fill:#88AEA0;}
	.st58{fill:#F5E5E3;}
	.st59{fill:#2B2E36;}
	.st60{fill:#808082;}
	.st61{fill:#E89E00;}
	.st62{fill:#0D70B2;}
	.st63{fill:#598ABF;}
</style>
<g>
	<path class="st58" d="M130.5,131.9c8.2,101,11.9,202.3,11,303.6c67.5,3.2,135.1,3.4,202.6,0.4c-1.3-55.4-2.7-110.7-4-166.1
		c14.3-0.8,28.7-1.5,43-2.3c3.3-0.2,6.9-0.5,9.3-2.7c3-2.8,3.1-7.4,2.9-11.5c-1.5-43.7-3.1-87.4-4.6-131.1c-0.1-3.5-0.4-7.3-2.8-9.9
		c-2.8-3.1-7.6-3.2-11.7-3.1c-82.3,1.5-164.5,3-246.8,4.5c-2.7,4.8-2.5,11.1,0.4,15.8"/>
	<path class="st59" d="M121.5,131.9c3.2,39.4,5.7,78.9,7.6,118.4c1.8,39.4,2.9,78.7,3.4,118.1c0.2,22.3,0.3,44.7,0,67
		c0,5,4.2,8.8,9,9c52.6,2.5,105.3,3.2,157.9,1.9c14.9-0.4,29.8-0.9,44.7-1.5c4.8-0.2,9.1-4,9-9c-1-43.1-2.1-86.2-3.1-129.3
		c-0.3-12.3-0.6-24.5-0.9-36.8c-3,3-6,6-9,9c8.1-0.4,16.3-0.9,24.4-1.3c8-0.4,16.1-0.3,24-1.6c3.7-0.6,7.5-2.1,10.2-4.8
		c3.5-3.5,5-7.9,5.5-12.7c0.7-7.2-0.2-14.8-0.5-22.1c-1.1-32.1-2.3-64.2-3.4-96.3c-0.3-8,0-16.2-1.2-24.1
		c-1.5-9.3-8.6-14.6-17.6-15.7c-7.3-0.8-14.9,0-22.3,0.1c-8.3,0.2-16.7,0.3-25,0.5c-32,0.6-63.9,1.2-95.9,1.7
		c-36.3,0.7-72.6,1.3-108.9,2c-3.1,0.1-6.3,1.6-7.8,4.5c-4.1,7.9-4.1,17.1,0.4,24.9c2.4,4.1,8.2,5.9,12.3,3.2
		c4.1-2.6,5.8-8,3.2-12.3c-0.3-0.5-0.5-0.9-0.8-1.4c0.4,0.8,0.3,0.8,0,0c-0.1-0.5-0.3-1-0.4-1.5c0.3,1.2,0,0.6,0-0.3
		c0-0.5,0-1.1,0-1.6c0-1.2-0.4,1.1,0,0.1c0.2-0.4,0.3-1.1,0.4-1.5c0.2-1.2-0.8,1.6,0.2-0.4c-2.6,1.5-5.2,3-7.8,4.5
		c61.3-1.1,122.6-2.2,183.8-3.3c15.3-0.3,30.6-0.6,46-0.8c7.1-0.1,14.4-0.8,21.5-0.2c-2.2-0.2,0.1,0.1,0.5,0.2
		c0.2,0.1,0.5,0.1,0.7,0.2c-1-0.5-1.1-0.5-0.2,0c-0.2-0.2-0.5-0.4-0.7-0.6c0.7,0.7,0.7,0.7,0-0.1c0.1,0.2,0.2,0.4,0.4,0.6
		c-0.4-0.9-0.4-1.1-0.2-0.4c0.1,0.6,0.3,1.2,0.4,1.8c-0.4-2.1,0,0.3,0,0.7c0.1,1.8,0.1,3.7,0.2,5.5c1.1,30.5,2.1,60.9,3.2,91.4
		c0.3,8.6,0.6,17.2,0.9,25.8c0.1,4,0.4,8.1,0.4,12.1c0,0.7-0.1,1.5-0.1,2.2c0.1-2.2-0.2,0.3-0.3,0.8c-0.2,1.4,0.4-2.1-0.1,0.1
		c0.7-0.9,0.8-0.9,0.1-0.2c0.8-0.6,0.8-0.7,0-0.1c0.3-0.1,0.5-0.2,0.8-0.3c-0.5,0.2-1,0.3-1.5,0.4c-2,0.6,1.2,0-0.7,0.1
		c-2.1,0.1-4.3,0.2-6.4,0.4c-4.2,0.2-8.5,0.4-12.7,0.7c-8.5,0.4-16.9,0.9-25.4,1.3c-4.8,0.3-9.1,3.9-9,9c1,43.1,2.1,86.2,3.1,129.3
		c0.3,12.3,0.6,24.5,0.9,36.8c3-3,6-6,9-9c-52.6,2.3-105.3,2.7-157.9,1.3c-14.9-0.4-29.8-1-44.7-1.7l9,9c0.4-39.6,0-79.1-1-118.7
		c-1-39.4-2.8-78.7-5.2-118.1c-1.4-22.3-3-44.6-4.8-66.9c-0.4-4.7-3.9-9.2-9-9C126,123.1,121.1,126.9,121.5,131.9"/>
	<path class="st60" d="M122.9,74.8c34.8-0.6,69.6-1.2,104.5-1.8c34.8-0.6,69.6-1.2,104.5-1.8c19.7-0.3,39.3-0.7,59-1
		c3.9-0.1,3.9-6.1,0-6c-34.8,0.6-69.6,1.2-104.5,1.8c-34.8,0.6-69.6,1.2-104.5,1.8c-19.7,0.3-39.3,0.7-59,1
		C119,68.9,119,74.9,122.9,74.8"/>
	<path class="st60" d="M387.7,55.9v22.3c0,3.9,6,3.9,6,0V55.9C393.7,52,387.7,52,387.7,55.9"/>
	<path class="st60" d="M115.7,61.1c0.8,5.2,1.6,10.4,2.4,15.6c0.2,1.6,2.3,2.6,3.7,2.1c1.7-0.5,2.4-2,2.1-3.7
		c-0.8-5.2-1.6-10.4-2.4-15.6c-0.2-1.6-2.3-2.6-3.7-2.1C116.1,58,115.5,59.5,115.7,61.1"/>
	<path class="st60" d="M87.4,111.7c-0.6,42.4-0.5,84.8,0.5,127.3s2.7,84.8,5.2,127.2c1.4,23.8,3.1,47.6,5,71.4c0.3,3.8,6.3,3.9,6,0
		c-3.4-42.3-6-84.6-7.8-127c-1.8-42.4-2.9-84.8-3.1-127.2c-0.1-23.9,0-47.7,0.3-71.6C93.4,107.8,87.4,107.8,87.4,111.7"/>
	<path class="st60" d="M85,447.2c8.5,0.9,17.1,0.1,25.4-2.2c3.7-1,2.1-6.8-1.6-5.8c-7.8,2.2-15.8,2.8-23.8,2c-1.6-0.2-3,1.5-3,3
		C82,446,83.3,447,85,447.2"/>
	<path class="st60" d="M73.8,112.5h29c3.9,0,3.9-6,0-6h-29C69.9,106.5,69.9,112.5,73.8,112.5"/>
</g>
</svg>
