<?xml version="1.0" encoding="utf-8"?>
<!-- Generator: Adobe Illustrator 24.1.0, SVG Export Plug-In . SVG Version: 6.00 Build 0)  -->
<svg version="1.1" id="Layer_1" xmlns="http://www.w3.org/2000/svg" xmlns:xlink="http://www.w3.org/1999/xlink" x="0px" y="0px"
	 viewBox="0 0 500 500" style="enable-background:new 0 0 500 500;" xml:space="preserve">
<style type="text/css">
	.st0{fill:#9DC2B5;}
	.st1{fill:#479D86;}
	.st2{fill:#F0C47C;}
	.st3{fill:#F49C00;}
	.st4{fill:#2B2F36;}
	.st5{fill:#F66F52;}
	.st6{fill:#FF2E00;}
	.st7{fill:#F4D7A6;}
	.st8{fill:#A3C3E0;}
	.st9{opacity:0.57;}
	.st10{fill:#4B8AC3;}
	.st11{fill:#E19FB3;}
	.st12{fill:#EFCED8;}
	.st13{fill:#F8E9D1;}
	.st14{fill:#D0E0ED;}
	.st15{fill:#D5EFEE;}
	.st16{fill:#FA907D;}
	.st17{fill:#57595D;}
	.st18{fill:#77A7D1;}
	.st19{fill:#F2F8F9;}
	.st20{fill:#DDDE83;}
	.st21{fill:#EAE9BA;}
	.st22{fill:#7EAF9E;}
	.st23{fill:#F9BEC0;}
	.st24{fill:#808083;}
	.st25{fill:#ECB14E;}
	.st26{fill:#FCECE4;}
	.st27{fill:#FBCDB6;}
	.st28{fill:#C3EBEC;}
	.st29{fill:#E681A3;}
	.st30{fill:#BED5CE;}
	.st31{fill:#E8B6C5;}
	.st32{fill:#0071B9;}
	.st33{fill:#FFAA7F;}
	.st34{fill:#DFF2F1;}
	.st35{fill:#F7E4E4;}
	.st36{fill:#F3CDCD;}
	.st37{fill:#FFF5EF;}
	.st38{fill:#DDE9E5;}
	.st39{fill:#F6F6E7;}
	.st40{fill:#F0F1D1;}
	.st41{fill:#F6E5EA;}
	.st42{fill:#F19900;}
	.st43{fill:#F1D4A3;}
	.st44{fill:#0071B5;}
	.st45{fill:#EFF5F6;}
	.st46{fill:#F36F52;}
	.st47{fill:#9ABFB2;}
	.st48{fill:#F0CACA;}
	.st49{fill:#77A4CE;}
	.st50{fill:#499A83;}
	.st51{fill:#FFA77C;}
	.st52{fill:#DADB80;}
	.st53{fill:#4C87C0;}
</style>
<g>
	<g>
		<path class="st51" d="M201,84c-6-3.3-8.8-8.8-15.2-11.1c-5.2-1.8-10.8-0.6-16.2,0.8c-5.1,1.2-10.2,2.5-14.9,4.8
			c-10.4,5.2-17.7,14.9-24.5,24.4c-3.1,4.2-6.2,8.6-7.5,13.6c-2.4,8.9,1.2,18.2,5.2,26.5c14.3,30,34.7,57,59.5,79
			c6.7,6,14.6,11.8,23.6,11.6c11.6-0.3,20.6-11.1,23.5-22.4c4.2-16.7-2.5-35.6-16.3-45.9c-5-3.7-11-6.6-14.4-11.8
			c-4.3-6.5-3.5-14.9-2.6-22.6c1.3-10.7,2.6-21.4,3.9-32.1C205.5,93.5,205.6,86.8,201,84z"/>
	</g>
	<g>
		<path class="st51" d="M186.2,42.5c-0.9-3.3-1.6-7-4.2-9.3c-1.1-0.9-2.4-1.6-3.7-2.1c-3-1.3-6.1-2.3-9.4-2.1
			c-3.2,0.2-6.5,1.8-8,4.6c-0.7,1.4-1,2.9-1.2,4.4c-1,8.9,2.1,18.2,8.4,24.6c2.4,2.5,5.5,4.6,9,4.6c2.8,0,5.5-1.5,7.7-3.2
			c1.6-1.2,3.1-2.6,4.1-4.4c1.5-2.7,1.5-5.9,0.8-8.9C189,47.9,187.6,45.2,186.2,42.5z"/>
	</g>
	<g>
		<path class="st51" d="M155.6,53c-1.7-2.5-1.4-3-3.9-4.8c-2.4-1.8-5.8-2.6-8.5-1.3c-2.5,1.2-4,4-4.2,6.8c-0.2,2.8,0.7,5.5,1.9,8.1
			c1.6,3.3,3.8,6.4,6.3,9.1c0.4,0.5,0.9,0.9,1.5,1.2c0.8,0.3,1.6,0.3,2.5,0.2c3.9-0.6,6.8-4.2,7.5-8.1
			C159.3,60.2,157.9,56.2,155.6,53z"/>
	</g>
	<g>
		<path class="st51" d="M134.4,62.9c-0.2-0.6-0.5-1.5-1-2c-2.9-2.9-8.2-2-10.7,1.2s-2.4,7.9-0.6,11.5c1.8,3.6,4.9,6.4,8.3,8.7
			c0.9,0.6,1.9,1.2,3,1.1c0.9-0.1,1.6-0.7,2.2-1.2c2.2-1.9,4.4-4.2,4.6-7.1c0.1-2.4-1.2-4.6-2.4-6.6
			C136.7,66.6,135.6,64.7,134.4,62.9z"/>
	</g>
	<g>
		<path class="st51" d="M122.5,80.9c-1.8-2.7-5.1-5.9-8.3-4.7c-2.2,0.8-3.8,3.1-4.2,5.4s0.1,4.8,0.9,7c1.2,3.1,3.3,6.1,6.4,7.5
			c3.1,1.4,7.2,0.7,9-2.2c1.3-2.1,1.2-4.8,0.3-7S124.1,82.8,122.5,80.9z"/>
	</g>
	<g>
		<path class="st51" d="M113.2,97.7c-2.2-2.8-7.3-4-9.8-1.5c-1.7,1.7-1.8,4.3-1.5,6.7c0.4,2.9,1.4,5.8,2.9,8.4
			c0.9,1.6,2.1,3.1,3.7,3.8c2.5,1.2,5.7,0.1,7.5-2c1.7-2.2,2.2-5.2,1.5-7.9c-0.6-2.7-2.2-5.1-4.1-7.2L113.2,97.7z"/>
	</g>
</g>
<g>
	<g>
		<path class="st52" d="M298.7,207.9c6-3.3,8.8-8.8,15.2-11.1c5.2-1.8,10.8-0.6,16.2,0.8c5.1,1.2,10.2,2.5,14.9,4.8
			c10.4,5.2,17.7,14.9,24.5,24.4c3.1,4.2,6.2,8.6,7.5,13.6c2.4,8.9-1.2,18.2-5.2,26.5c-14.3,30-34.7,57-59.5,79
			c-6.7,6-14.6,11.8-23.6,11.6c-11.6-0.3-20.6-11.1-23.5-22.4c-4.2-16.7,2.5-35.6,16.3-45.9c5-3.7,11-6.6,14.4-11.8
			c4.3-6.5,3.5-14.9,2.6-22.6c-1.3-10.7-2.6-21.4-3.9-32.1C294.1,217.3,294,210.7,298.7,207.9z"/>
	</g>
	<g>
		<path class="st52" d="M313.4,166.3c0.9-3.3,1.6-7,4.2-9.3c1.1-0.9,2.4-1.6,3.7-2.1c3-1.3,6.1-2.3,9.4-2.1c3.2,0.2,6.5,1.8,8,4.6
			c0.7,1.4,1,2.9,1.2,4.4c1,8.9-2.1,18.2-8.4,24.6c-2.4,2.5-5.5,4.6-9,4.6c-2.8,0-5.5-1.5-7.7-3.2c-1.6-1.2-3.1-2.6-4.1-4.4
			c-1.5-2.7-1.5-5.9-0.8-8.9C310.6,171.8,312,169,313.4,166.3z"/>
	</g>
	<g>
		<path class="st52" d="M344,176.9c1.7-2.5,1.4-3,3.9-4.8c2.4-1.8,5.8-2.6,8.5-1.3c2.5,1.2,4,4,4.2,6.8c0.2,2.8-0.7,5.5-1.9,8.1
			c-1.6,3.3-3.8,6.4-6.3,9.1c-0.4,0.5-0.9,0.9-1.5,1.2c-0.8,0.3-1.6,0.3-2.5,0.2c-3.9-0.6-6.8-4.2-7.5-8.1
			C340.3,184,341.7,180.1,344,176.9z"/>
	</g>
	<g>
		<path class="st52" d="M365.2,186.8c0.2-0.6,0.5-1.5,1-2c2.9-2.9,8.2-2,10.7,1.2c2.5,3.2,2.4,7.9,0.6,11.5
			c-1.8,3.6-4.9,6.4-8.3,8.7c-0.9,0.6-1.9,1.2-3,1.1c-0.9-0.1-1.6-0.7-2.2-1.2c-2.2-1.9-4.4-4.2-4.6-7.1c-0.1-2.4,1.2-4.6,2.4-6.6
			C362.9,190.5,364,188.6,365.2,186.8z"/>
	</g>
	<g>
		<path class="st52" d="M377.1,204.8c1.8-2.7,5.1-5.9,8.3-4.7c2.2,0.8,3.8,3.1,4.2,5.4s-0.1,4.8-0.9,7c-1.2,3.1-3.3,6.1-6.4,7.5
			c-3.1,1.4-7.2,0.7-9-2.2c-1.3-2.1-1.2-4.8-0.3-7C373.9,208.5,375.5,206.6,377.1,204.8z"/>
	</g>
	<g>
		<path class="st52" d="M386.4,221.5c2.2-2.8,7.3-4,9.8-1.5c1.7,1.7,1.8,4.3,1.5,6.7c-0.4,2.9-1.4,5.8-2.9,8.4
			c-0.9,1.6-2.1,3.1-3.7,3.8c-2.5,1.2-5.7,0.1-7.5-2s-2.2-5.2-1.5-7.9c0.6-2.7,2.2-5.1,4.1-7.2L386.4,221.5z"/>
	</g>
</g>
<g>
	<g>
		<path class="st53" d="M201,320.5c-6-3.3-8.8-8.8-15.2-11.1c-5.2-1.8-10.8-0.6-16.2,0.8c-5.1,1.2-10.2,2.5-14.9,4.8
			c-10.4,5.2-17.7,14.9-24.5,24.4c-3.1,4.2-6.2,8.6-7.5,13.6c-2.4,8.9,1.2,18.2,5.2,26.5c14.3,30,34.7,57,59.5,79
			c6.7,6,14.6,11.8,23.6,11.6c11.6-0.3,20.6-11.1,23.5-22.4c4.2-16.7-2.5-35.6-16.3-45.9c-5-3.7-11-6.6-14.4-11.8
			c-4.3-6.5-3.5-14.9-2.6-22.6c1.3-10.7,2.6-21.4,3.9-32.1C205.5,330,205.6,323.3,201,320.5z"/>
	</g>
	<g>
		<path class="st53" d="M186.2,279c-0.9-3.3-1.6-7-4.2-9.3c-1.1-0.9-2.4-1.6-3.7-2.1c-3-1.3-6.1-2.3-9.4-2.1c-3.2,0.2-6.5,1.8-8,4.6
			c-0.7,1.4-1,2.9-1.2,4.4c-1,8.9,2.1,18.2,8.4,24.6c2.4,2.5,5.5,4.6,9,4.6c2.8,0,5.5-1.5,7.7-3.2c1.6-1.2,3.1-2.6,4.1-4.4
			c1.5-2.7,1.5-5.9,0.8-8.9C189,284.4,187.6,281.7,186.2,279z"/>
	</g>
	<g>
		<path class="st53" d="M155.6,289.5c-1.7-2.5-1.4-3-3.9-4.8c-2.4-1.8-5.8-2.6-8.5-1.3c-2.5,1.2-4,4-4.2,6.8
			c-0.2,2.8,0.7,5.5,1.9,8.1c1.6,3.3,3.8,6.4,6.3,9.1c0.4,0.5,0.9,0.9,1.5,1.2c0.8,0.3,1.6,0.3,2.5,0.2c3.9-0.6,6.8-4.2,7.5-8.1
			C159.3,296.7,157.9,292.7,155.6,289.5z"/>
	</g>
	<g>
		<path class="st53" d="M134.4,299.4c-0.2-0.6-0.5-1.5-1-2c-2.9-2.9-8.2-2-10.7,1.2s-2.4,7.9-0.6,11.5s4.9,6.4,8.3,8.7
			c0.9,0.6,1.9,1.2,3,1.1c0.9-0.1,1.6-0.7,2.2-1.2c2.2-1.9,4.4-4.2,4.6-7.1c0.1-2.4-1.2-4.6-2.4-6.6
			C136.7,303.1,135.6,301.2,134.4,299.4z"/>
	</g>
	<g>
		<path class="st53" d="M122.5,317.4c-1.8-2.7-5.1-5.9-8.3-4.7c-2.2,0.8-3.8,3.1-4.2,5.4s0.1,4.8,0.9,7c1.2,3.1,3.3,6.1,6.4,7.5
			s7.2,0.7,9-2.2c1.3-2.1,1.2-4.8,0.3-7S124.1,319.3,122.5,317.4z"/>
	</g>
	<g>
		<path class="st53" d="M113.2,334.2c-2.2-2.8-7.3-4-9.8-1.5c-1.7,1.7-1.8,4.3-1.5,6.7c0.4,2.9,1.4,5.8,2.9,8.4
			c0.9,1.6,2.1,3.1,3.7,3.8c2.5,1.2,5.7,0.1,7.5-2c1.7-2.2,2.2-5.2,1.5-7.9c-0.6-2.7-2.2-5.1-4.1-7.2L113.2,334.2z"/>
	</g>
</g>
</svg>
