<?xml version="1.0" encoding="utf-8"?>
<!-- Generator: Adobe Illustrator 24.1.0, SVG Export Plug-In . SVG Version: 6.00 Build 0)  -->
<svg version="1.1" id="Layer_1" xmlns="http://www.w3.org/2000/svg" xmlns:xlink="http://www.w3.org/1999/xlink" x="0px" y="0px"
	 viewBox="0 0 500 500" style="enable-background:new 0 0 500 500;" xml:space="preserve">
<style type="text/css">
	.st0{fill:#9DC2B5;}
	.st1{fill:#479D86;}
	.st2{fill:#F0C47C;}
	.st3{fill:#F49C00;}
	.st4{fill:#2B2F36;}
	.st5{fill:#F66F52;}
	.st6{fill:#FF2E00;}
	.st7{fill:#F4D7A6;}
	.st8{fill:#A3C3E0;}
	.st9{opacity:0.57;}
	.st10{fill:#4B8AC3;}
	.st11{fill:#E19FB3;}
	.st12{fill:#EFCED8;}
	.st13{fill:#F8E9D1;}
	.st14{fill:#D0E0ED;}
	.st15{fill:#D5EFEE;}
	.st16{fill:#FA907D;}
	.st17{fill:#57595D;}
	.st18{fill:#77A7D1;}
	.st19{fill:#F2F8F9;}
	.st20{fill:#DDDE83;}
	.st21{fill:#EAE9BA;}
	.st22{fill:#7EAF9E;}
	.st23{fill:#F9BEC0;}
	.st24{fill:#808083;}
	.st25{fill:#ECB14E;}
	.st26{fill:#FCECE4;}
	.st27{fill:#FBCDB6;}
	.st28{fill:#C3EBEC;}
	.st29{fill:#E681A3;}
	.st30{fill:#BED5CE;}
	.st31{fill:#E8B6C5;}
	.st32{fill:#0071B9;}
	.st33{fill:#FFAA7F;}
	.st34{fill:#DFF2F1;}
	.st35{fill:#F7E4E4;}
	.st36{fill:#F3CDCD;}
	.st37{fill:#FFF5EF;}
	.st38{fill:#DDE9E5;}
	.st39{fill:#F6F6E7;}
	.st40{fill:#F0F1D1;}
	.st41{fill:#F6E5EA;}
	.st42{fill:#FAF0F0;}
	.st43{fill:#F19900;}
	.st44{fill:#F1D4A3;}
	.st45{fill:#0071B5;}
	.st46{fill:#EFF5F6;}
	.st47{fill:#F36F52;}
	.st48{fill:#9ABFB2;}
	.st49{fill:#F0CACA;}
	.st50{fill:#77A4CE;}
	.st51{fill:#499A83;}
</style>
<g>
	<path class="st23" d="M226.7,438.1c1.4-26,4.1-16.5-5-40.9c-4.9-13.2-11.9-25.6-15.4-39.2c-1.8-6.8-2.7-13.9-5.7-20.2
		c-1.9-4-4.6-7.6-7-11.3c-5-7.8-8.7-16.3-12.4-24.8c-0.3-0.7-0.6-1.4-0.6-2.1c0-2.2,2.9-3.3,5-2.6s3.3,2.8,4.5,4.6
		c5.1,8.1,10.2,16.3,15.3,24.4c1.2,1.8,2.7,3.9,4.9,3.8c1.8-0.1,3.2-2,3.4-3.8c0.2-1.8-0.4-3.7-1.1-5.4c-5-13.6-9.9-27.3-14.9-40.9
		c-0.7-1.9-1.4-4-1.1-6c0.3-2,2-4,4.1-3.9c1.8,0.1,3.2,1.8,4.1,3.3c8.5,13.4,10.4,30.4,20,43c7.2-17.9-1-37.9-2.2-57.2
		c-0.1-1.8-0.1-3.8,1-5.3c2-2.7,6.6-1.9,8.7,0.8c2.1,2.6,2.4,6.2,2.7,9.6c0.8,11.5,1.6,23,2.4,34.6c0.4,5.9,1.1,12.4,5.2,16.6
		c9.5-14,9.1-32.1,13.7-48.4c1-3.4,2.7-7.3,6.1-8.1c3.2-0.8,6.5,1.5,7.9,4.5s1.2,6.4,0.8,9.7c-2.6,21.5-14.7,42.2-10.8,63.5
		c0.6,3.4,1.8,7,4.7,8.9c3.5,2.4,8.4,1.6,12-0.6c3.6-2.2,6.3-5.6,9.4-8.4c5.8-5.4,13-9.3,20.7-11.2c2.4-0.6,5.4-0.8,6.9,1.2
		c1.5,2,0.5,4.8-0.9,6.9c-2.8,4.2-6.8,7.5-10.6,10.8c-12.6,11.1-23.4,24.2-31.8,38.7c-1.8,3-3.5,6.2-4.1,9.7
		c-0.9,4.4,0,8.9,0.9,13.3c3.9,20.3,3.2,4.6,7.1,24.9c0.1,0.7,0.3,1.5,0.1,2.2c-0.4,1.3-1.8,1.9-3.1,2.3c-5.7,1.8-11.8,2.3-17.7,2.8
		c-7.5,0.7-15,1.3-22.5,2c-1.7,0.1-4.2-0.9-3.3-2.3"/>
</g>
<g>
	<path class="st2" d="M470.1,270.8c-25.9-2.4-16.4-4.8-41.1,3.4c-13.3,4.4-26,10.8-39.8,13.8c-6.9,1.5-14,2.1-20.4,4.9
		c-4.1,1.7-7.8,4.3-11.6,6.5c-8,4.7-16.7,8-25.3,11.4c-0.7,0.3-1.4,0.5-2.1,0.5c-2.2-0.1-3.2-3.1-2.4-5.1c0.9-2,2.9-3.2,4.8-4.3
		c8.3-4.8,16.7-9.5,25-14.3c1.9-1.1,4-2.6,4-4.8c-0.1-1.8-1.9-3.3-3.7-3.5c-1.8-0.3-3.7,0.3-5.4,0.9c-13.8,4.4-27.6,8.8-41.4,13.2
		c-2,0.6-4,1.3-6.1,0.9s-4-2.2-3.7-4.2c0.2-1.8,1.9-3.1,3.5-4c13.7-8,30.8-9.2,43.8-18.3c-17.6-7.9-37.9-0.6-57.2-0.1
		c-1.8,0-3.9,0-5.3-1.2c-2.6-2.1-1.6-6.7,1.1-8.7c2.7-2,6.3-2.2,9.7-2.3c11.5-0.3,23.1-0.7,34.6-1c5.9-0.2,12.4-0.6,16.8-4.5
		c-13.6-10-31.7-10.4-47.8-15.7c-3.4-1.1-7.2-3-7.9-6.5c-0.7-3.2,1.8-6.4,4.8-7.7s6.5-1,9.7-0.4c21.3,3.5,41.6,16.4,63,13.4
		c3.4-0.5,7-1.5,9.1-4.3c2.5-3.4,1.9-8.3-0.2-12s-5.3-6.6-8.1-9.8c-5.2-6-8.8-13.4-10.3-21.2c-0.5-2.4-0.5-5.4,1.5-6.8
		c2-1.4,4.8-0.3,6.8,1.2c4.1,3,7.2,7.1,10.4,11.1c10.6,13,23.3,24.3,37.4,33.4c3,1.9,6.1,3.7,9.5,4.5c4.4,1,8.9,0.4,13.4-0.3
		c20.5-3.1,4.7-3,25.2-6.1c0.7-0.1,1.5-0.2,2.2,0c1.3,0.5,1.8,1.9,2.1,3.2c1.5,5.8,1.8,11.8,2.1,17.8c0.4,7.5,0.7,15,1.1,22.5
		c0.1,1.7-1,4.1-2.4,3.2"/>
</g>
<g>
	<path class="st18" d="M16.6,256.2c26-0.6,16.7-3.6,40.8,6.2c13,5.3,25.2,12.6,38.7,16.5c6.7,2,13.8,3.1,20,6.3
		c3.9,2,7.4,4.8,11.1,7.3c7.6,5.2,16.1,9.2,24.4,13.2c0.7,0.3,1.4,0.6,2.1,0.6c2.2,0,3.4-2.8,2.7-4.9c-0.7-2.1-2.7-3.4-4.5-4.6
		c-8-5.3-16-10.7-24-16c-1.8-1.2-3.8-2.9-3.6-5c0.2-1.8,2.1-3.1,3.9-3.3c1.8-0.2,3.6,0.5,5.4,1.2c13.5,5.4,26.9,10.7,40.4,16.1
		c1.9,0.8,3.9,1.5,6,1.3s4.1-1.9,4-3.9c-0.1-1.8-1.7-3.2-3.2-4.2c-13.1-8.9-30.1-11.3-42.4-21.3c18.1-6.7,37.9,2.1,57.1,3.9
		c1.8,0.2,3.8,0.2,5.4-0.8c2.8-1.9,2.1-6.6-0.5-8.8c-2.6-2.2-6.1-2.6-9.5-3c-11.5-1.2-23-2.3-34.5-3.5c-5.9-0.6-12.3-1.4-16.4-5.7
		c14.2-9,32.4-8.1,48.7-12.3c3.5-0.9,7.3-2.5,8.3-5.9c0.9-3.2-1.3-6.5-4.3-8c-2.9-1.5-6.4-1.4-9.6-1.1c-21.5,2-42.6,13.5-63.8,8.9
		c-3.4-0.7-6.9-2-8.8-4.9c-2.3-3.5-1.3-8.4,1-11.9s5.7-6.2,8.7-9.2c5.6-5.6,9.7-12.7,11.8-20.4c0.6-2.4,0.9-5.4-1-6.9
		c-1.9-1.5-4.8-0.6-6.9,0.7c-4.3,2.7-7.7,6.6-11.1,10.3C101.6,195.6,88.2,206,73.5,214c-3.1,1.7-6.3,3.3-9.8,3.9
		c-4.4,0.7-8.9-0.3-13.3-1.2c-20.2-4.5-4.5-3.3-24.7-7.8c-0.7-0.2-1.5-0.3-2.2-0.1c-1.3,0.4-1.9,1.8-2.4,3
		c-1.9,5.7-2.6,11.7-3.4,17.6c-0.9,7.5-1.8,14.9-2.7,22.4c-0.2,1.7,0.7,4.2,2.2,3.4"/>
</g>
<g>
	<path class="st0" d="M219.6,67.3c4.7,25.6,6.2,15.9,0.3,41.2c-3.2,13.7-8.4,26.9-10.2,40.8c-0.9,7-0.9,14.1-3,20.8
		c-1.4,4.2-3.6,8.1-5.4,12.1c-3.9,8.4-6.5,17.3-9.1,26.2c-0.2,0.7-0.4,1.4-0.3,2.2c0.3,2.2,3.3,2.9,5.2,1.9c1.9-1,2.9-3.2,3.8-5.1
		c4-8.7,8-17.5,12-26.2c0.9-2,2.2-4.2,4.4-4.4c1.8-0.1,3.4,1.6,3.9,3.4c0.4,1.8,0,3.7-0.4,5.5c-3.2,14.2-6.3,28.3-9.5,42.5
		c-0.4,2-0.9,4.1-0.3,6.1c0.6,2,2.5,3.7,4.5,3.3c1.8-0.4,2.9-2.2,3.7-3.8c6.7-14.4,6.4-31.5,14.3-45.2c9.5,16.8,4,37.7,5.2,57
		c0.1,1.8,0.4,3.8,1.7,5.2c2.3,2.4,6.8,1,8.6-1.9s1.6-6.5,1.4-9.9c-0.7-11.5-1.4-23.1-2.1-34.6c-0.4-5.9-0.6-12.4,3-17.1
		c11.2,12.6,13.2,30.7,19.9,46.2c1.4,3.3,3.6,6.9,7.1,7.3c3.3,0.4,6.3-2.4,7.2-5.5c1-3.1,0.4-6.5-0.5-9.7
		c-5.4-20.9-20.1-39.9-19-61.5c0.2-3.4,0.9-7.1,3.5-9.5c3.1-2.8,8.1-2.6,11.9-0.9c3.9,1.7,7,4.7,10.4,7.2c6.5,4.6,14.1,7.5,22,8.4
		c2.5,0.3,5.5,0.1,6.7-2.1c1.2-2.1-0.2-4.8-1.8-6.7c-3.3-3.8-7.7-6.5-12-9.3c-13.9-9.4-26.3-21-36.6-34.3c-2.2-2.8-4.3-5.7-5.4-9.1
		c-1.4-4.3-1.2-8.9-0.9-13.3c1.3-20.6,2.5-5,3.8-25.6c0-0.7,0.1-1.5-0.2-2.2c-0.6-1.2-2.1-1.6-3.4-1.8c-5.9-1-12-0.8-18-0.5
		c-7.5,0.3-15,0.6-22.5,0.9c-1.7,0.1-4,1.4-3,2.7"/>
</g>
</svg>
