<?xml version="1.0" encoding="utf-8"?>
<!-- Generator: Adobe Illustrator 24.1.0, SVG Export Plug-In . SVG Version: 6.00 Build 0)  -->
<svg version="1.1" id="Layer_1" xmlns="http://www.w3.org/2000/svg" xmlns:xlink="http://www.w3.org/1999/xlink" x="0px" y="0px"
	 viewBox="0 0 500 500" style="enable-background:new 0 0 500 500;" xml:space="preserve">
<style type="text/css">
	.st0{fill:#9DC2B5;}
	.st1{fill:#479D86;}
	.st2{fill:#F0C47C;}
	.st3{fill:#F49C00;}
	.st4{fill:#2B2F36;}
	.st5{fill:#F66F52;}
	.st6{fill:#FF2E00;}
	.st7{fill:#F4D7A6;}
	.st8{fill:#A3C3E0;}
	.st9{opacity:0.57;}
	.st10{fill:#4B8AC3;}
	.st11{fill:#E19FB3;}
	.st12{fill:#EFCED8;}
	.st13{fill:#F8E9D1;}
	.st14{fill:#D0E0ED;}
	.st15{fill:#D5EFEE;}
	.st16{fill:#FA907D;}
	.st17{fill:#57595D;}
	.st18{fill:#77A7D1;}
	.st19{fill:#F2F8F9;}
	.st20{fill:#DDDE83;}
	.st21{fill:#EAE9BA;}
	.st22{fill:#7EAF9E;}
	.st23{fill:#F9BEC0;}
	.st24{fill:#808083;}
	.st25{fill:#ECB14E;}
	.st26{fill:#FCECE4;}
	.st27{fill:#FBCDB6;}
	.st28{fill:#C3EBEC;}
	.st29{fill:#E681A3;}
	.st30{fill:#BED5CE;}
	.st31{fill:#E8B6C5;}
	.st32{fill:#0071B9;}
	.st33{fill:#FFAA7F;}
	.st34{fill:#DFF2F1;}
	.st35{fill:#F7E4E4;}
	.st36{fill:#F3CDCD;}
	.st37{fill:#FFF5EF;}
	.st38{fill:#DDE9E5;}
	.st39{fill:#F6F6E7;}
	.st40{fill:#F0F1D1;}
	.st41{fill:#F6E5EA;}
</style>
<g>
	<path class="st6" d="M15.3,111.1c47.7,9.3,102.8-14.3,142.7,13.4c24.5,17,34.1,47.8,45.9,75.1c47.2,109.2,164.7,191.8,282.3,174
		c10.9,11.4,4.8,31.8-8.2,40.8c-13,9-29.8,9.6-45.6,9.6c-79.6-0.2-168.9-15.3-215.3-80c-26.8-37.3-35-86.2-64.7-121.2
		C128.5,194.4,91,178,53.9,179.4c-9.4,0.4-19.3,1.7-27.9-2C3.8,168,6.2,136.1,12.4,112.8"/>
	<path class="st3" d="M52.2,78.1c18.5,107.1-8.3,216.9-3,325.4c0.4,7.9,1.5,16.8,7.8,21.6c3.3,2.5,7.6,3.4,11.6,4.3
		c10.2,2.1,21.1,4.2,30.9,0.5c12.6-4.8,20.2-18.4,21.9-31.8c1.7-13.4-1.3-26.9-3.8-40.2c-17.9-93.9-13-190.4-7.9-285.9
		c-18.6-5.6-38.7-5.5-57.3,0.1"/>
</g>
</svg>
